<svg
        width="515"
        height="515"
        viewBox="0 0 515 515"
        fill="none"
        xmlns="http://www.w3.org/2000/svg"
      >
        <path
          d="M0.279968 299.781C0.243191 313.466 2.90228 327.025 8.10539 339.682C13.3085 352.34 20.9538 363.848 30.6046 373.551C40.2555 383.254 51.723 390.961 64.3524 396.232C76.9818 401.503 90.5257 404.235 104.211 404.272L104.491 300.061L0.279968 299.781Z"
          fill="#FDC67A"
        />
        <path
          d="M0.975281 193.138C0.938504 206.823 3.59759 220.382 8.8007 233.039C14.0038 245.697 21.6491 257.206 31.2999 266.908C40.9508 276.611 52.4183 284.318 65.0477 289.589C77.6771 294.86 91.221 297.592 104.906 297.629L105.186 193.418L0.975281 193.138Z"
          fill="#F8991F"
        />
        <path
          d="M297.766 38.5581C288.999 38.5581 280.317 40.2277 272.217 43.4714C264.117 46.7152 256.757 51.4697 250.557 57.4634C244.358 63.4571 239.44 70.5726 236.085 78.4038C232.73 86.2349 231.003 94.6283 231.003 103.105C231.003 111.581 232.73 119.974 236.085 127.806C239.44 135.637 244.358 142.752 250.557 148.746C256.757 154.74 264.117 159.494 272.217 162.738C280.317 165.982 288.998 167.651 297.766 167.651V103.105L297.766 38.5581Z"
          fill="#F8991F"
        />
        <path
          d="M231.071 31.6108C222.303 31.6108 213.622 33.2804 205.521 36.5242C197.421 39.7679 190.061 44.5224 183.862 50.5161C177.662 56.5098 172.745 63.6254 169.389 71.4565C166.034 79.2877 164.307 87.6811 164.307 96.1574C164.307 104.634 166.034 113.027 169.389 120.858C172.745 128.689 177.662 135.805 183.862 141.799C190.061 147.792 197.421 152.547 205.521 155.791C213.622 159.034 222.303 160.704 231.071 160.704V96.1574L231.071 31.6108Z"
          fill="#FDC67A"
        />
        <path
          d="M297.765 168.822C306.533 168.822 315.214 170.492 323.314 173.736C331.415 176.979 338.775 181.734 344.974 187.728C351.174 193.721 356.091 200.837 359.447 208.668C362.802 216.499 364.529 224.892 364.529 233.369C364.529 241.845 362.802 250.239 359.447 258.07C356.091 265.901 351.174 273.016 344.974 279.01C338.775 285.004 331.415 289.758 323.314 293.002C315.214 296.246 306.533 297.915 297.765 297.915V233.369L297.765 168.822Z"
          fill="#FDC67A"
        />
        <path
          d="M364.461 172.643C373.228 172.643 381.91 174.313 390.01 177.557C398.11 180.8 405.47 185.555 411.669 191.549C417.869 197.542 422.787 204.658 426.142 212.489C429.497 220.32 431.224 228.714 431.224 237.19C431.224 245.666 429.497 254.06 426.142 261.891C422.787 269.722 417.869 276.838 411.669 282.831C405.47 288.825 398.11 293.579 390.01 296.823C381.91 300.067 373.228 301.736 364.461 301.736V237.19L364.461 172.643Z"
          fill="#F8991F"
        />
        <path
          d="M107.653 309.671C107.293 333.023 116.224 355.561 132.482 372.328C148.74 389.095 170.993 398.716 194.344 399.076C217.696 399.436 240.235 390.504 257.001 374.246C273.768 357.989 283.389 335.736 283.749 312.384L249.239 311.853C249.02 326.052 243.17 339.583 232.975 349.468C222.78 359.354 209.075 364.785 194.876 364.566C180.677 364.347 167.146 358.497 157.26 348.302C147.375 338.107 141.944 324.402 142.163 310.203L107.653 309.671Z"
          fill="#F8991F"
        />
        <path
          d="M1.84589 454.355C2.2892 425.581 25.9743 402.615 54.7481 403.058C83.5218 403.502 106.488 427.187 106.045 455.961C105.602 484.734 81.9164 507.701 53.1427 507.257C24.3689 506.814 1.40257 483.129 1.84589 454.355ZM85.6248 455.646C85.8944 438.15 71.9295 423.748 54.4335 423.478C36.9374 423.209 22.5355 437.174 22.266 454.67C21.9964 472.166 35.9612 486.568 53.4573 486.837C70.9534 487.107 85.3552 473.142 85.6248 455.646Z"
          fill="#F8991F"
        />
        <path
          d="M285.191 461.602V364.969C285.191 364.969 289.849 324.792 330.519 324.792C371.188 324.792 370.644 364.969 370.644 364.969V461.602C370.644 461.602 370.644 501.469 330.519 499.445C290.393 497.422 285.191 461.602 285.191 461.602Z"
          stroke="#FDC67A"
          stroke-width="30"
        />
        <path
          d="M400.172 461.602V364.969C400.172 364.969 404.829 324.792 445.499 324.792C486.169 324.792 485.625 364.969 485.625 364.969V461.602C485.625 461.602 485.625 501.469 445.499 499.445C405.373 497.422 400.172 461.602 400.172 461.602Z"
          fill="#FDC67A"
          stroke="#F8991F"
          stroke-width="30"
        />
        <path
          d="M226.039 490.141H150.539C150.539 490.141 119.148 486.903 119.148 458.633C119.148 430.362 150.539 430.74 150.539 430.74H226.039C226.039 430.74 257.188 430.74 255.607 458.633C254.026 486.525 226.039 490.141 226.039 490.141Z"
          fill="#FDC67A"
          stroke="#F8991F"
          stroke-width="30"
        />
        <path
          d="M229.262 296.586C191.842 321.366 155.307 321.311 126.443 277.723C97.5792 234.135 108.221 195.089 145.641 170.309C183.062 145.529 256.699 170.51 297.232 171.583C280.184 204.329 266.683 271.806 229.262 296.586Z"
          fill="#FDC67A"
        />
        <path
          d="M367.754 41.5814C405.174 16.8015 441.708 16.8562 470.572 60.4441C499.436 104.032 488.795 143.078 451.374 167.858C413.954 192.638 340.317 167.657 299.783 166.584C316.831 133.839 330.333 66.3614 367.754 41.5814Z"
          fill="#F8991F"
        />
        <circle cx="53.8419" cy="148.327" r="45.1583" fill="#FDC67A" />
      </svg>
      