<svg width="175" height="175" viewBox="0 0 175 175" fill="none" xmlns="http://www.w3.org/2000/svg">
<circle cx="87.5" cy="87.5" r="87.5" fill="#F2F0F0"/>
<circle cx="87.8997" cy="45.2727" r="22.2727" fill="#F8991F"/>
<path d="M132 123.227C132 116.793 130.733 110.421 128.27 104.476C125.808 98.5309 122.198 93.1291 117.648 88.5791C113.098 84.029 107.696 80.4197 101.751 77.9572C95.8065 75.4947 89.4348 74.2273 83 74.2273C76.5652 74.2273 70.1935 75.4947 64.2485 77.9572C58.3036 80.4197 52.9018 84.029 48.3518 88.5791C43.8017 93.1291 40.1924 98.5309 37.7299 104.476C35.2674 110.421 34 116.793 34 123.227L83 123.227H132Z" fill="#F8991F"/>
</svg>
