<svg width="300" height="288" viewBox="0 0 300 288" fill="none" xmlns="http://www.w3.org/2000/svg">
<rect width="300" height="288" fill="#FDC67A"/>
<circle cx="151" cy="75" r="50" fill="#F8991F"/>
<path d="M250 250C250 235.555 247.155 221.251 241.627 207.905C236.099 194.559 227.996 182.433 217.782 172.218C207.567 162.004 195.441 153.901 182.095 148.373C168.749 142.845 154.445 140 140 140C125.555 140 111.251 142.845 97.9048 148.373C84.559 153.901 72.4327 162.004 62.2183 172.218C52.0038 182.433 43.9013 194.559 38.3732 207.905C32.8452 221.251 30 235.555 30 250L140 250H250Z" fill="#F8991F"/>
</svg>
