<svg width="560" height="532" viewBox="0 0 560 532" fill="none" xmlns="http://www.w3.org/2000/svg">
<path d="M280.001 448.359C399.933 448.359 497.157 442.966 497.157 436.315C497.157 429.663 399.933 424.27 280.001 424.27C160.068 424.27 62.8438 429.663 62.8438 436.315C62.8438 442.966 160.068 448.359 280.001 448.359Z" fill="#F5F5F5"/>
<path d="M267.008 363.388H50.7468C49.0516 363.385 47.4266 362.744 46.2279 361.605C45.0293 360.467 44.3545 358.923 44.3516 357.312V68.5109C44.3692 66.9097 45.0505 65.3797 46.2476 64.2524C47.4447 63.1251 49.0612 62.4914 50.7468 62.4887H267.008C268.702 62.4915 270.326 63.1329 271.522 64.2719C272.719 65.411 273.392 66.9547 273.392 68.5642V357.312C273.392 358.922 272.719 360.466 271.522 361.605C270.326 362.744 268.702 363.385 267.008 363.388ZM50.7468 62.7015C49.1258 62.7043 47.5721 63.3173 46.4259 64.4062C45.2798 65.495 44.6345 66.9711 44.6316 68.5109V357.312C44.6345 358.852 45.2798 360.328 46.4259 361.417C47.5721 362.506 49.1258 363.119 50.7468 363.122H267.008C268.627 363.119 270.18 362.506 271.324 361.417C272.469 360.327 273.112 358.851 273.112 357.312V68.5109C273.112 66.972 272.469 65.496 271.324 64.4068C270.18 63.3176 268.627 62.7043 267.008 62.7015H50.7468Z" fill="#E6E6E6"/>
<path d="M509.263 363.388H292.991C291.297 363.385 289.673 362.744 288.477 361.605C287.28 360.466 286.607 358.922 286.607 357.312V68.5109C286.622 66.9107 287.301 65.3806 288.496 64.2531C289.692 63.1255 291.307 62.4914 292.991 62.4887H509.263C510.948 62.4914 512.563 63.1255 513.759 64.2531C514.954 65.3806 515.633 66.9107 515.647 68.5109V357.312C515.647 358.922 514.975 360.466 513.778 361.605C512.581 362.744 510.958 363.385 509.263 363.388ZM292.991 62.7015C291.372 62.7043 289.819 63.3176 288.675 64.4068C287.53 65.496 286.887 66.972 286.887 68.5109V357.312C286.887 358.851 287.53 360.327 288.675 361.417C289.819 362.506 291.372 363.119 292.991 363.122H509.263C510.885 363.119 512.44 362.506 513.588 361.418C514.736 360.329 515.384 358.853 515.39 357.312V68.5109C515.384 66.9701 514.736 65.4941 513.588 64.4055C512.44 63.3169 510.885 62.7043 509.263 62.7015H292.991Z" fill="#E6E6E6"/>
<path d="M106.399 417.311H60.2441V417.577H106.399V417.311Z" fill="#E0E0E0"/>
<path d="M200.479 415.183H154.189V415.449H200.479V415.183Z" fill="#E0E0E0"/>
<path d="M260.714 415.183H249.514V415.449H260.714V415.183Z" fill="#E0E0E0"/>
<path d="M148.769 424.27H96.9688V424.536H148.769V424.27Z" fill="#E0E0E0"/>
<path d="M327.936 417.173H303.744V417.439H327.936V417.173Z" fill="#E0E0E0"/>
<path d="M369.186 417.173H337.904V417.439H369.186V417.173Z" fill="#E0E0E0"/>
<path d="M520.05 421.674H450.117V421.94H520.05V421.674Z" fill="#E0E0E0"/>
<path d="M461.933 121.541H408.609V156.94H461.933V121.541Z" fill="#E6E6E6"/>
<path d="M432.656 121.541H408.609V156.94H432.656V121.541Z" fill="#F0F0F0"/>
<path opacity="0.4" d="M420.615 126.339C422.185 126.339 423.72 126.782 425.026 127.611C426.332 128.44 427.35 129.618 427.951 130.996C428.552 132.375 428.709 133.891 428.403 135.355C428.096 136.818 427.34 138.162 426.23 139.217C425.119 140.272 423.704 140.991 422.164 141.282C420.623 141.573 419.027 141.424 417.576 140.853C416.125 140.282 414.885 139.315 414.012 138.074C413.14 136.834 412.674 135.375 412.674 133.883C412.674 131.882 413.51 129.964 415 128.549C416.489 127.134 418.509 126.339 420.615 126.339Z" fill="#E0E0E0"/>
<path d="M424.479 148.598C424.479 149.326 424.252 150.038 423.826 150.644C423.4 151.249 422.795 151.721 422.087 151.999C421.379 152.278 420.599 152.351 419.848 152.209C419.096 152.067 418.405 151.716 417.864 151.201C417.322 150.687 416.953 150.031 416.803 149.316C416.653 148.602 416.73 147.862 417.024 147.189C417.317 146.517 417.814 145.942 418.451 145.537C419.088 145.133 419.837 144.917 420.604 144.917C421.113 144.915 421.618 145.01 422.088 145.194C422.559 145.379 422.987 145.65 423.347 145.992C423.707 146.334 423.993 146.74 424.187 147.188C424.381 147.635 424.48 148.114 424.479 148.598Z" fill="#E0E0E0"/>
<path d="M420.559 136.543C421.809 136.543 422.822 135.581 422.822 134.394C422.822 133.207 421.809 132.245 420.559 132.245C419.31 132.245 418.297 133.207 418.297 134.394C418.297 135.581 419.31 136.543 420.559 136.543Z" fill="#FAFAFA"/>
<path d="M348.096 108.858H325.035V156.951H348.096V108.858Z" fill="#F0F0F0"/>
<path d="M378.055 108.858H347.457V156.951H378.055V108.858Z" fill="#E6E6E6"/>
<path d="M336.481 124.126C337.116 124.124 337.736 124.301 338.265 124.635C338.793 124.968 339.206 125.443 339.449 126C339.693 126.556 339.758 127.169 339.634 127.76C339.511 128.352 339.206 128.895 338.757 129.321C338.309 129.747 337.737 130.037 337.114 130.154C336.492 130.271 335.847 130.21 335.261 129.979C334.676 129.747 334.175 129.355 333.824 128.853C333.473 128.351 333.287 127.761 333.289 127.159C333.292 126.355 333.629 125.586 334.227 125.018C334.825 124.449 335.635 124.129 336.481 124.126Z" fill="white"/>
<path d="M336.48 119.391C336.797 119.391 337.107 119.481 337.37 119.648C337.634 119.815 337.839 120.053 337.96 120.331C338.081 120.609 338.113 120.915 338.051 121.21C337.99 121.505 337.837 121.776 337.613 121.989C337.389 122.202 337.104 122.347 336.793 122.405C336.482 122.464 336.16 122.434 335.868 122.319C335.575 122.203 335.325 122.008 335.149 121.758C334.973 121.508 334.879 121.214 334.879 120.913C334.879 120.713 334.92 120.515 335.001 120.331C335.081 120.146 335.199 119.978 335.348 119.837C335.497 119.696 335.673 119.584 335.868 119.507C336.062 119.431 336.27 119.391 336.48 119.391Z" fill="white"/>
<path d="M336.48 114.795C336.797 114.795 337.107 114.884 337.37 115.051C337.634 115.219 337.839 115.456 337.96 115.734C338.081 116.012 338.113 116.318 338.051 116.613C337.99 116.908 337.837 117.18 337.613 117.392C337.389 117.605 337.104 117.75 336.793 117.809C336.482 117.867 336.16 117.837 335.868 117.722C335.575 117.607 335.325 117.412 335.149 117.162C334.973 116.912 334.879 116.617 334.879 116.316C334.879 116.117 334.92 115.919 335.001 115.734C335.081 115.55 335.199 115.382 335.348 115.241C335.497 115.099 335.673 114.987 335.868 114.911C336.062 114.834 336.27 114.795 336.48 114.795Z" fill="white"/>
<path d="M377.519 135.83H325.551V136.586H377.519V135.83Z" fill="#E0E0E0"/>
<path d="M377.519 140.097H325.551V140.852H377.519V140.097Z" fill="#E0E0E0"/>
<path d="M377.519 144.364H325.551V145.119H377.519V144.364Z" fill="#E0E0E0"/>
<path d="M377.519 148.63H325.551V149.386H377.519V148.63Z" fill="#E0E0E0"/>
<path d="M377.519 152.897H325.551V153.652H377.519V152.897Z" fill="#E0E0E0"/>
<path d="M337.029 137.128H334.834V139.214H337.029V137.128Z" fill="#E0E0E0"/>
<path d="M337.029 141.618H334.834V143.704H337.029V141.618Z" fill="#E0E0E0"/>
<path d="M337.029 145.662H334.834V147.747H337.029V145.662Z" fill="#E0E0E0"/>
<path d="M337.029 150.024H334.834V152.109H337.029V150.024Z" fill="#E0E0E0"/>
<path d="M337.029 154.259H334.834V156.344H337.029V154.259Z" fill="#E0E0E0"/>
<path d="M280.974 204.288H279.854V163.547C279.856 161.347 280.778 159.238 282.416 157.682C284.053 156.126 286.274 155.251 288.59 155.248H325.55V156.312H288.59C286.571 156.315 284.635 157.078 283.207 158.434C281.78 159.791 280.976 161.629 280.974 163.547V204.288Z" fill="#E0E0E0"/>
<path d="M278.733 204.362H277.613V163.25C277.616 160.581 278.733 158.022 280.72 156.135C282.706 154.248 285.399 153.187 288.208 153.184H325.549V154.248H288.208C285.696 154.251 283.288 155.2 281.512 156.888C279.735 158.575 278.736 160.863 278.733 163.25V204.362Z" fill="#E0E0E0"/>
<path d="M156.095 102.144H121.027V137.607H156.095V102.144Z" fill="#E6E6E6"/>
<path d="M165.076 102.144H156.094V137.607H165.076V102.144Z" fill="#F5F5F5"/>
<path d="M138.174 96.675H111.832V137.607H138.174V96.675Z" fill="#E6E6E6"/>
<path d="M145.778 96.675H138.162V137.607H145.778V96.675Z" fill="#F5F5F5"/>
<path d="M130.413 102.144H108.203V137.607H130.413V102.144Z" fill="#EBEBEB"/>
<path d="M135.486 102.144H130.412V137.607H135.486V102.144Z" fill="#F5F5F5"/>
<path d="M112.235 108.145H83.1035V137.607H112.235V108.145Z" fill="#E6E6E6"/>
<path d="M119.694 108.145H112.234V137.607H119.694V108.145Z" fill="#F5F5F5"/>
<path d="M97.3496 103.602H75.4648V137.607H97.3496V103.602Z" fill="#E6E6E6"/>
<path d="M103.666 103.602H97.3379V137.607H103.666V103.602Z" fill="#F5F5F5"/>
<path d="M90.8982 108.145H69.6406V137.607H90.8982V108.145Z" fill="#E6E6E6"/>
<path d="M95.1214 108.145H90.9102V137.607H95.1214V108.145Z" fill="#F0F0F0"/>
<path d="M44.7993 147.853L273.279 147.853V137.586L44.7993 137.586V147.853Z" fill="#E6E6E6"/>
<path d="M85.8027 148.098H98.4363L89.2299 161.302H85.8027V148.098Z" fill="#E0E0E0"/>
<path d="M85.8022 148.098H83.9766V161.302H85.8022V148.098Z" fill="#E0E0E0"/>
<path d="M227.707 148.098H240.352L231.145 161.302H227.707V148.098Z" fill="#E0E0E0"/>
<path d="M227.718 148.098H225.893V161.302H227.718V148.098Z" fill="#E0E0E0"/>
<path d="M515.457 156.951H286.977V167.218H515.457V156.951Z" fill="#E6E6E6"/>
<path d="M474.465 180.657H471.027L461.82 167.452H474.465V180.657Z" fill="#E0E0E0"/>
<path d="M476.29 167.452H474.465V180.657H476.29V167.452Z" fill="#E0E0E0"/>
<path d="M332.549 180.657H329.111L319.904 167.452H332.549V180.657Z" fill="#E0E0E0"/>
<path d="M334.376 167.452H332.551V180.657H334.376V167.452Z" fill="#E0E0E0"/>
<path d="M221.144 116.923C221.146 115.398 220.908 113.881 220.439 112.422L224.594 108.954L221.984 104.644L216.743 106.336C214.535 104.095 211.679 102.525 208.533 101.825L207.413 96.675H202.183L201.063 101.825C197.92 102.525 195.067 104.095 192.864 106.336L187.612 104.644L185.002 108.954L189.157 112.422C188.217 115.356 188.217 118.49 189.157 121.424L185.002 124.892L187.612 129.202L192.864 127.51C195.067 129.751 197.92 131.321 201.063 132.021L202.183 137.171H207.413L208.533 132.021C211.679 131.321 214.535 129.751 216.743 127.51L221.984 129.202L224.594 124.892L220.439 121.424C220.908 119.965 221.146 118.448 221.144 116.923ZM204.837 125.286C203.16 125.286 201.521 124.814 200.127 123.929C198.733 123.044 197.646 121.786 197.004 120.314C196.362 118.842 196.195 117.223 196.522 115.66C196.849 114.098 197.656 112.663 198.842 111.536C200.028 110.41 201.538 109.643 203.183 109.332C204.828 109.021 206.532 109.181 208.082 109.79C209.631 110.4 210.955 111.432 211.887 112.757C212.818 114.081 213.316 115.639 213.316 117.232C213.316 119.368 212.422 121.416 210.832 122.927C209.242 124.437 207.086 125.286 204.837 125.286Z" fill="#F0F0F0"/>
<path d="M249.434 119.53C248.889 118.67 248.209 117.895 247.418 117.232L248.538 113.922L245.514 112.358L243.173 115.018C241.128 114.477 238.96 114.529 236.946 115.167L234.471 112.635L231.525 114.337L232.78 117.583C231.269 119.005 230.233 120.818 229.8 122.796L226.25 123.562L226.34 126.829L229.935 127.425C230.47 129.376 231.6 131.134 233.183 132.479L232.063 135.788L235.087 137.352L237.428 134.692C239.478 135.222 241.647 135.17 243.666 134.543L246.141 137.075L249.076 135.373L247.821 132.117C249.331 130.699 250.368 128.889 250.8 126.914L254.351 126.148L254.261 122.871L250.677 122.286C250.414 121.312 249.995 120.382 249.434 119.53ZM243.308 129.553C242.363 130.105 241.268 130.378 240.16 130.338C239.052 130.298 237.982 129.946 237.085 129.328C236.187 128.709 235.503 127.851 235.12 126.863C234.736 125.875 234.669 124.801 234.929 123.777C235.188 122.753 235.761 121.826 236.576 121.111C237.391 120.397 238.41 119.929 239.506 119.766C240.601 119.603 241.722 119.752 242.728 120.195C243.734 120.638 244.579 121.354 245.156 122.254C245.926 123.455 246.164 124.898 245.818 126.266C245.472 127.634 244.569 128.815 243.308 129.553Z" fill="#F0F0F0"/>
<path d="M508.681 290.6H52.1465V296.058H508.681V290.6Z" fill="#F8991F"/>
<path d="M79.3398 294.515V424.685H82.9014L87.3814 294.515H79.3398Z" fill="#F8991F"/>
<path d="M121.385 298.771V419.365H124.946L129.426 298.771H121.385Z" fill="#F8991F"/>
<path opacity="0.5" d="M121.385 298.771V419.365H124.946L129.426 298.771H121.385Z" fill="black"/>
<path d="M483.112 294.515V424.685H479.561L475.07 294.515H483.112Z" fill="#F8991F"/>
<path d="M441.067 298.771V419.365H437.505L433.025 298.771H441.067Z" fill="#F8991F"/>
<path opacity="0.5" d="M441.067 298.771V419.365H437.505L433.025 298.771H441.067Z" fill="black"/>
<path d="M491.232 301.899H70.9405L61.6445 296.058H500.528L491.232 301.899Z" fill="#F8991F"/>
<path opacity="0.5" d="M491.232 301.899H70.9405L61.6445 296.058H500.528L491.232 301.899Z" fill="black"/>
<path d="M82.1523 273.863V278.119C82.1522 278.825 82.4462 279.502 82.9699 280.002L86.5203 283.375C86.8348 283.672 87.2185 283.894 87.6403 284.024C88.3723 285.521 89.5392 286.788 91.0036 287.675C92.4679 288.563 94.1688 289.035 95.9059 289.036H97.2387C98.4439 289.043 99.6386 288.822 100.754 288.387C101.868 287.953 102.881 287.312 103.734 286.502C104.586 285.692 105.26 284.73 105.718 283.671C106.176 282.612 106.408 281.477 106.4 280.332V270.405H86.8227V271.214H84.9523C84.2117 271.214 83.5012 271.492 82.9764 271.989C82.4516 272.485 82.1553 273.159 82.1523 273.863ZM84.3923 273.863C84.3923 273.794 84.4069 273.725 84.4352 273.661C84.4634 273.597 84.5049 273.539 84.557 273.49C84.6092 273.442 84.671 273.404 84.7389 273.378C84.8068 273.353 84.8793 273.34 84.9523 273.342H86.8227V280.332C86.8227 280.428 86.8227 280.524 86.8227 280.619L84.5827 278.491C84.5289 278.444 84.4862 278.386 84.4573 278.322C84.4283 278.258 84.4139 278.189 84.4147 278.119L84.3923 273.863Z" fill="#F8991F"/>
<path opacity="0.5" d="M82.1523 273.863V278.119C82.1522 278.825 82.4462 279.502 82.9699 280.002L86.5203 283.375C86.8348 283.672 87.2185 283.894 87.6403 284.024C88.3723 285.521 89.5392 286.788 91.0036 287.675C92.4679 288.563 94.1688 289.035 95.9059 289.036H97.2387C98.4439 289.043 99.6386 288.822 100.754 288.387C101.868 287.953 102.881 287.312 103.734 286.502C104.586 285.692 105.26 284.73 105.718 283.671C106.176 282.612 106.408 281.477 106.4 280.332V270.405H86.8227V271.214H84.9523C84.2117 271.214 83.5012 271.492 82.9764 271.989C82.4516 272.485 82.1553 273.159 82.1523 273.863ZM84.3923 273.863C84.3923 273.794 84.4069 273.725 84.4352 273.661C84.4634 273.597 84.5049 273.539 84.557 273.49C84.6092 273.442 84.671 273.404 84.7389 273.378C84.8068 273.353 84.8793 273.34 84.9523 273.342H86.8227V280.332C86.8227 280.428 86.8227 280.524 86.8227 280.619L84.5827 278.491C84.5289 278.444 84.4862 278.386 84.4573 278.322C84.4283 278.258 84.4139 278.189 84.4147 278.119L84.3923 273.863Z" fill="white"/>
<path d="M111.036 290.472H82.8795C81.5921 290.363 80.3938 289.802 79.5195 288.897H114.352C113.49 289.795 112.309 290.356 111.036 290.472Z" fill="#F8991F"/>
<path opacity="0.5" d="M111.036 290.472H82.8795C81.5921 290.363 80.3938 289.802 79.5195 288.897H114.352C113.49 289.795 112.309 290.356 111.036 290.472Z" fill="white"/>
<path d="M489.842 277.449C489.696 273.193 486.314 272.192 481.901 271.714V270.171C481.895 269.992 481.816 269.823 481.68 269.699C481.543 269.576 481.362 269.508 481.173 269.511H465.919C465.825 269.508 465.731 269.523 465.643 269.555C465.555 269.586 465.474 269.634 465.405 269.696C465.337 269.757 465.281 269.83 465.243 269.912C465.204 269.993 465.183 270.081 465.18 270.171V290.291H481.912V288.089C486.325 287.62 489.708 281.683 489.842 277.449ZM481.901 285.492V274.32C485.149 274.767 487.389 275.193 486.908 278.279C486.527 280.747 484.488 285.152 481.901 285.492Z" fill="#F8991F"/>
<g opacity="0.5">
<path d="M489.842 277.449C489.696 273.193 486.314 272.192 481.901 271.714V270.171C481.895 269.992 481.816 269.823 481.68 269.699C481.543 269.576 481.362 269.508 481.173 269.511H465.919C465.825 269.508 465.731 269.523 465.643 269.555C465.555 269.586 465.474 269.634 465.405 269.696C465.337 269.757 465.281 269.83 465.243 269.912C465.204 269.993 465.183 270.081 465.18 270.171V290.291H481.912V288.089C486.325 287.62 489.708 281.683 489.842 277.449ZM481.901 285.492V274.32C485.149 274.767 487.389 275.193 486.908 278.279C486.527 280.747 484.488 285.152 481.901 285.492Z" fill="white"/>
</g>
<path d="M286.595 264.649H273.391V290.131H286.595V264.649Z" fill="#F8991F"/>
<path opacity="0.5" d="M286.595 264.649H273.391V290.131H286.595V264.649Z" fill="white"/>
<path d="M292.566 290.589H267.545L273.649 285.493H286.462L292.566 290.589Z" fill="#F8991F"/>
<path opacity="0.5" d="M292.566 290.589H267.545L273.649 285.493H286.462L292.566 290.589Z" fill="white"/>
<path d="M347.568 282.343H285.027L296.328 290.621H358.858L347.568 282.343Z" fill="#F8991F"/>
<path opacity="0.4" d="M347.568 282.343H285.027L296.328 290.621H358.858L347.568 282.343Z" fill="white"/>
<path d="M286.472 290.621L285.027 282.343L296.328 290.621H286.472Z" fill="#F8991F"/>
<path opacity="0.5" d="M286.472 290.621L285.027 282.343L296.328 290.621H286.472Z" fill="black"/>
<path d="M336.593 204.331H222.767C221.573 204.331 220.605 205.25 220.605 206.384V272.693C220.605 273.827 221.573 274.746 222.767 274.746H336.593C337.786 274.746 338.754 273.827 338.754 272.693V206.384C338.754 205.25 337.786 204.331 336.593 204.331Z" fill="#F8991F"/>
<path opacity="0.5" d="M334.341 208.736H224.895V270.096H334.341V208.736Z" fill="black"/>
<path opacity="0.4" d="M330.858 221.355H275.631V257.477H330.858V221.355Z" fill="black"/>
<path d="M330.858 221.355H275.631V224.664H330.858V221.355Z" fill="#F8991F"/>
<path d="M285.755 241.337L294.782 246.082C295.127 246.24 295.435 246.46 295.689 246.731C295.843 246.943 295.922 247.197 295.913 247.455C295.914 247.635 295.877 247.813 295.804 247.979C295.73 248.146 295.623 248.296 295.488 248.423C295.363 248.55 295.212 248.651 295.044 248.72C294.877 248.79 294.696 248.826 294.513 248.827C294.112 248.784 293.728 248.649 293.393 248.433L281.745 242.283C281.559 242.195 281.402 242.059 281.293 241.891C281.183 241.723 281.125 241.529 281.125 241.331C281.125 241.133 281.183 240.939 281.293 240.771C281.402 240.603 281.559 240.467 281.745 240.379L293.393 234.229C293.731 234.023 294.114 233.895 294.513 233.857C294.697 233.854 294.88 233.888 295.05 233.955C295.219 234.023 295.372 234.124 295.499 234.25C295.635 234.374 295.743 234.523 295.816 234.687C295.889 234.852 295.926 235.029 295.925 235.208C295.934 235.466 295.856 235.72 295.701 235.931C295.446 236.202 295.138 236.423 294.793 236.58L285.755 241.337Z" fill="white"/>
<path d="M308.985 232.473L300.025 250.764C299.881 251.096 299.672 251.399 299.409 251.657C299.166 251.837 298.865 251.932 298.558 251.923C298.375 251.926 298.193 251.893 298.024 251.828C297.854 251.762 297.701 251.664 297.572 251.54C297.44 251.429 297.335 251.293 297.261 251.141C297.188 250.989 297.149 250.824 297.146 250.657C297.179 250.284 297.293 249.922 297.482 249.593L306.442 231.314C306.583 230.988 306.784 230.688 307.036 230.431C307.282 230.248 307.586 230.151 307.898 230.154C308.08 230.151 308.26 230.184 308.427 230.25C308.595 230.316 308.746 230.413 308.873 230.537C309 230.648 309.101 230.783 309.17 230.933C309.24 231.083 309.276 231.245 309.276 231.409C309.26 231.78 309.16 232.142 308.985 232.473Z" fill="white"/>
<path d="M320.218 241.336L311.191 236.58C310.85 236.417 310.543 236.197 310.283 235.931C310.128 235.72 310.05 235.466 310.059 235.208C310.058 235.029 310.095 234.852 310.168 234.687C310.241 234.522 310.349 234.374 310.485 234.25C310.614 234.124 310.769 234.024 310.941 233.956C311.112 233.888 311.296 233.854 311.482 233.857C311.88 233.897 312.264 234.024 312.602 234.229L324.25 240.379C324.436 240.467 324.593 240.603 324.703 240.771C324.812 240.939 324.87 241.133 324.87 241.331C324.87 241.529 324.812 241.723 324.703 241.891C324.593 242.059 324.436 242.195 324.25 242.283L312.602 248.433C312.266 248.646 311.883 248.781 311.482 248.827C311.292 248.829 311.105 248.793 310.931 248.722C310.757 248.65 310.602 248.545 310.474 248.412C310.341 248.287 310.237 248.137 310.165 247.973C310.094 247.808 310.058 247.632 310.059 247.454C310.051 247.197 310.13 246.943 310.283 246.731C310.543 246.465 310.85 246.245 311.191 246.082L320.218 241.336Z" fill="white"/>
<path d="M233.128 214.396H229.387V217.95H233.128V214.396Z" fill="white"/>
<path d="M233.128 223.6H229.387V227.153H233.128V223.6Z" fill="white"/>
<path d="M233.128 232.793H229.387V236.346H233.128V232.793Z" fill="white"/>
<path d="M233.128 241.985H229.387V245.539H233.128V241.985Z" fill="white"/>
<path d="M233.128 251.178H229.387V254.732H233.128V251.178Z" fill="white"/>
<path d="M233.128 260.371H229.387V263.925H233.128V260.371Z" fill="white"/>
<path d="M251.585 215.205H236.678V216.269H251.585V215.205Z" fill="white"/>
<path d="M245.459 224.419H240.15V225.483H245.459V224.419Z" fill="white"/>
<path d="M268.565 234.761H263.256V235.825H268.565V234.761Z" fill="white"/>
<path d="M245.459 242.964H240.15V244.028H245.459V242.964Z" fill="white"/>
<path d="M253.108 242.964H247.799V244.028H253.108V242.964Z" fill="white"/>
<path d="M261.362 234.761H247.799V235.825H261.362V234.761Z" fill="white"/>
<path d="M264.633 242.964H255.707V244.028H264.633V242.964Z" fill="white"/>
<path d="M260.981 262.68H255.672V263.744H260.981V262.68Z" fill="white"/>
<path d="M268.643 262.68H263.334V263.744H268.643V262.68Z" fill="white"/>
<path d="M274.197 262.68H271.229V263.744H274.197V262.68Z" fill="white"/>
<path d="M264.633 224.419H248.113V225.483H264.633V224.419Z" fill="white"/>
<path d="M253.108 252.572H247.799V253.636H253.108V252.572Z" fill="white"/>
<path d="M257.957 252.572H254.889V253.636H257.957V252.572Z" fill="white"/>
<path d="M268.968 252.572H260.299V253.636H268.968V252.572Z" fill="white"/>
<path d="M270.412 175.028C270.132 187.902 256.053 198.702 238.951 199.128C233.699 199.296 228.471 198.377 223.629 196.436C221.905 200.479 218.276 203.948 207.871 205.501C218.724 197.532 212.788 190.786 210.313 184.859C209.032 182.272 208.392 179.44 208.442 176.581C208.722 163.696 222.801 152.918 239.903 152.482C257.005 152.046 270.681 162.154 270.412 175.028Z" fill="#F8991F"/>
<path d="M239.792 161.547H224.885V162.611H239.792V161.547Z" fill="white"/>
<path d="M233.664 170.772H228.355V171.836H233.664V170.772Z" fill="white"/>
<path d="M256.77 181.114H251.461V182.178H256.77V181.114Z" fill="white"/>
<path d="M233.664 189.318H228.355V190.382H233.664V189.318Z" fill="white"/>
<path d="M241.326 189.318H236.018V190.382H241.326V189.318Z" fill="white"/>
<path d="M249.581 181.114H236.018V182.178H249.581V181.114Z" fill="white"/>
<path d="M252.839 189.318H243.912V190.382H252.839V189.318Z" fill="white"/>
<path d="M252.85 170.772H236.33V171.836H252.85V170.772Z" fill="white"/>
<path d="M335.071 418.95L326.906 416.63L328.81 397.617L336.975 399.936L335.071 418.95Z" fill="#7F3E3B"/>
<path opacity="0.2" d="M337.647 395.638L329.482 393.329L328.418 403.979L336.672 405.437L337.647 395.638Z" fill="black"/>
<path d="M383.399 301.516C383.399 301.516 327.253 306.017 328.631 329.18C329.751 348.141 332.719 343.012 326.906 399.404L341.029 400.149C341.029 400.149 355.399 354.035 353.461 335.713C369.287 335.713 405.519 337.033 410.783 323.467C413.395 316.578 414.666 309.295 414.535 301.974L383.399 301.516Z" fill="#F8991F"/>
<path d="M343.27 402.703L324.812 399.702L325.115 391.946L344.222 395.978L343.27 402.703Z" fill="#263238"/>
<path d="M326.066 413.438L335.496 415.215C335.668 415.254 335.818 415.351 335.917 415.489C336.017 415.627 336.058 415.795 336.034 415.96L335.25 424.472C335.236 424.673 335.18 424.869 335.085 425.048C334.99 425.228 334.859 425.388 334.698 425.519C334.538 425.649 334.351 425.748 334.15 425.81C333.948 425.871 333.736 425.894 333.525 425.877C330.255 425.196 328.709 424.696 324.565 423.908C322.012 423.429 316.176 422.27 312.626 421.887C309.076 421.504 309.501 417.567 311.036 417.365C317.935 416.503 321.855 415.439 324.532 413.8C324.974 413.494 325.524 413.364 326.066 413.438Z" fill="#263238"/>
<path d="M321.833 414.96C322.575 415.056 323.326 415.077 324.073 415.024C324.111 415.025 324.148 415.014 324.178 414.993C324.209 414.972 324.231 414.942 324.241 414.907C324.257 414.876 324.266 414.841 324.266 414.806C324.266 414.771 324.257 414.736 324.241 414.705C324.006 414.481 321.889 412.577 320.802 412.79C320.676 412.809 320.559 412.861 320.462 412.94C320.365 413.019 320.293 413.121 320.254 413.236C320.165 413.404 320.125 413.59 320.137 413.777C320.149 413.964 320.212 414.144 320.321 414.3C320.717 414.697 321.258 414.933 321.833 414.96ZM323.636 414.673C322.079 414.673 320.982 414.503 320.657 414.066C320.59 413.964 320.555 413.846 320.555 413.726C320.555 413.606 320.59 413.488 320.657 413.385C320.674 413.328 320.708 413.277 320.753 413.236C320.798 413.195 320.854 413.166 320.914 413.151C321.441 413.045 322.762 413.896 323.681 414.683L323.636 414.673Z" fill="#F8991F"/>
<path d="M324.085 415.035H324.175C324.207 415.023 324.236 415.004 324.259 414.98C324.282 414.956 324.299 414.928 324.309 414.896C324.309 414.8 324.925 412.534 324.208 411.63C324.121 411.509 324.004 411.409 323.868 411.341C323.731 411.272 323.579 411.236 323.424 411.236C323.257 411.213 323.086 411.245 322.939 411.326C322.793 411.407 322.679 411.533 322.618 411.683C322.271 412.524 323.234 414.386 323.984 414.992C323.997 415.006 324.012 415.017 324.029 415.025C324.047 415.032 324.066 415.035 324.085 415.035ZM323.503 411.619C323.659 411.65 323.798 411.733 323.895 411.853C324.217 412.694 324.252 413.61 323.996 414.471C323.313 413.744 322.951 412.795 322.988 411.821C322.988 411.715 323.111 411.598 323.402 411.608L323.503 411.619Z" fill="#F8991F"/>
<path d="M298.671 421.908L290.898 418.588L296.274 400.373L304.047 403.692L298.671 421.908Z" fill="#7F3E3B"/>
<path opacity="0.2" d="M305.358 399L297.585 395.68L294.818 405.075L302.591 408.395L305.358 399Z" fill="black"/>
<path d="M366.689 301.516C366.319 301.516 303.745 307.634 303.666 327.797C303.532 361.143 293.508 399.362 293.508 399.362L305.828 405.182C305.828 405.182 327.365 363.75 327.041 337.756C344.255 333.064 388.786 340.948 394.05 327.393C398.362 316.306 396.033 301.516 396.033 301.516H366.689Z" fill="#F8991F"/>
<path d="M307.844 406.874L291.268 399.787L292.6 393.339L310.084 399.074L307.844 406.874Z" fill="#263238"/>
<path d="M291.671 412.47L301.124 414.332C301.302 414.388 301.452 414.503 301.549 414.655C301.645 414.807 301.681 414.987 301.651 415.162L300.911 424.472C300.777 425.483 300.015 426.175 299.198 426.015C295.927 425.302 294.382 424.749 290.238 423.887C287.684 423.398 280.729 421.759 277.223 420.918C273.718 420.078 274.502 415.811 276.103 415.779C283.036 415.684 287.527 414.609 290.193 412.768C290.404 412.624 290.645 412.523 290.899 412.472C291.154 412.421 291.417 412.42 291.671 412.47Z" fill="#263238"/>
<path d="M287.841 414.481C288.498 414.137 289.118 413.731 289.689 413.268C289.717 413.243 289.739 413.211 289.751 413.176C289.762 413.14 289.764 413.102 289.756 413.066C289.745 413.031 289.723 413 289.693 412.978C289.663 412.955 289.626 412.941 289.588 412.938C289.263 412.938 286.373 412.534 285.623 413.332C285.541 413.423 285.483 413.532 285.456 413.649C285.428 413.766 285.432 413.887 285.466 414.002C285.499 414.187 285.583 414.36 285.709 414.503C285.835 414.647 285.998 414.757 286.183 414.822C286.761 414.909 287.352 414.788 287.841 414.481ZM289.106 413.236C287.885 414.141 286.866 414.577 286.34 414.428C286.222 414.378 286.12 414.299 286.044 414.201C285.967 414.102 285.919 413.986 285.903 413.864C285.885 413.809 285.882 413.75 285.896 413.694C285.91 413.638 285.939 413.586 285.981 413.545C286.317 413.162 287.841 413.13 289.05 413.236H289.106Z" fill="#F8991F"/>
<path d="M289.633 413.268L289.712 413.215C289.731 413.188 289.741 413.157 289.741 413.125C289.741 413.092 289.731 413.061 289.712 413.034C289.656 412.96 288.726 410.779 287.595 410.449C287.449 410.405 287.294 410.393 287.142 410.416C286.991 410.438 286.847 410.493 286.721 410.576C286.571 410.653 286.452 410.775 286.385 410.924C286.318 411.073 286.306 411.24 286.351 411.396C286.587 412.279 288.524 413.226 289.521 413.29L289.633 413.268ZM287.023 410.842C287.098 410.811 287.178 410.795 287.259 410.795C287.34 410.795 287.42 410.811 287.494 410.842C288.282 411.337 288.886 412.056 289.219 412.896C288.212 412.697 287.325 412.137 286.743 411.332C286.676 411.247 286.744 411.076 286.945 410.928L287.023 410.842Z" fill="#F8991F"/>
<path d="M387.947 237.187C389.594 240.549 390.949 243.784 392.304 247.146C393.659 250.508 394.858 253.87 395.967 257.318C397.075 260.765 398.039 264.298 398.811 267.958C399.655 271.761 400.075 275.637 400.066 279.523C400.054 281.805 399.695 284.074 399.002 286.259C398.563 287.596 397.934 288.871 397.131 290.046C396.657 290.708 396.121 291.328 395.53 291.898L395.048 292.345C394.779 292.557 394.488 292.792 394.208 292.972C393.735 293.278 393.232 293.542 392.707 293.76C391.928 294.078 391.118 294.324 390.288 294.494C389.634 294.623 388.972 294.715 388.306 294.771C387.168 294.834 386.027 294.834 384.89 294.771C382.869 294.675 380.857 294.462 378.864 294.132C371.43 292.846 364.148 290.865 357.125 288.216L358.749 282.354C365.861 283.162 373.119 284.024 379.962 284.322C381.664 284.322 383.322 284.397 384.867 284.322C385.555 284.283 386.24 284.201 386.917 284.077C387.477 283.982 387.959 283.79 387.791 283.801C387.678 283.833 387.572 283.883 387.477 283.95C387.363 284.012 387.258 284.087 387.163 284.173C387.201 284.115 387.235 284.054 387.264 283.992C387.408 283.688 387.52 283.37 387.6 283.045C387.846 281.876 387.948 280.683 387.903 279.492C387.733 276.444 387.256 273.419 386.48 270.458C385.719 267.266 384.733 264.159 383.658 260.999C382.583 257.839 381.418 254.679 380.141 251.53C378.864 248.38 377.52 245.22 376.199 242.252L387.947 237.187Z" fill="#7F3E3B"/>
<path d="M361.839 283.95L354.413 279.981L350.684 287.62C350.684 287.62 359.364 291.057 361.189 288.908L361.839 283.95Z" fill="#7F3E3B"/>
<path d="M348.399 281.428L345.006 286.535L350.684 287.567L354.414 279.928L348.399 281.428Z" fill="#7F3E3B"/>
<path d="M370.632 243.252C369.21 246.646 367.72 249.891 366.152 253.179C364.584 256.467 363.016 259.701 361.359 262.936C358.021 269.521 354.281 275.916 350.159 282.088C349.039 283.662 347.918 285.226 346.664 286.791C346.037 287.578 345.342 288.355 344.603 289.153C344.2 289.557 343.875 289.929 343.405 290.344L342.733 290.961L342.352 291.302C341.286 292.168 340.031 292.8 338.679 293.153C337.966 293.345 337.24 293.491 336.506 293.59C335.309 293.726 334.103 293.772 332.899 293.728C330.819 293.666 328.746 293.471 326.694 293.143C319.101 291.867 311.664 289.864 304.496 287.163L306.131 281.29C313.378 282.12 320.781 283.003 327.747 283.279C329.39 283.338 331.035 283.316 332.675 283.215C333.336 283.164 333.991 283.064 334.635 282.918C334.844 282.867 335.047 282.796 335.24 282.705C335.307 282.705 335.24 282.63 334.938 282.811C334.826 282.866 334.723 282.938 334.635 283.024L334.747 282.896L335.061 282.566C335.263 282.375 335.509 282.056 335.744 281.8C336.203 281.247 336.674 280.651 337.144 280.002C338.074 278.736 338.981 277.332 339.877 275.906C341.669 273.054 343.338 270.022 344.973 266.958C346.608 263.893 348.176 260.765 349.722 257.616C352.802 251.338 355.814 244.848 358.682 238.57L370.632 243.252Z" fill="#7F3E3B"/>
<path d="M309.311 282.822L301.874 278.768L298.145 286.408C298.145 286.408 306.825 289.855 308.661 287.706L309.311 282.822Z" fill="#7F3E3B"/>
<path d="M295.872 280.311L292.467 285.407L298.145 286.439L301.875 278.8L295.872 280.311Z" fill="#7F3E3B"/>
<path d="M389.862 205.501L385.113 210.725L377.867 217.843L378.416 219.131C378.975 220.447 379.3 221.842 379.379 223.259C379.547 226.111 379.256 228.526 374.518 230.462C374.518 230.462 369.545 236.634 381.372 234.921C393.2 233.208 394.98 227.377 394.98 227.377C389.761 223.834 389.448 212.055 389.862 205.501Z" fill="#7F3E3B"/>
<path d="M365.749 199.606C365.749 200.309 365.379 200.904 364.886 200.926C364.394 200.947 364.002 200.394 363.99 199.692C363.979 198.989 364.371 198.393 364.853 198.372C365.334 198.351 365.738 198.904 365.749 199.606Z" fill="#263238"/>
<path d="M368.223 196.989C368.151 196.988 368.08 196.971 368.018 196.937C367.955 196.904 367.902 196.856 367.865 196.797C367.574 196.346 367.179 195.964 366.709 195.68C366.239 195.396 365.708 195.218 365.154 195.159C365.039 195.153 364.931 195.106 364.852 195.027C364.773 194.948 364.728 194.843 364.729 194.733C364.728 194.678 364.74 194.624 364.763 194.574C364.786 194.523 364.819 194.477 364.861 194.44C364.903 194.402 364.953 194.372 365.007 194.353C365.061 194.334 365.119 194.326 365.177 194.329C365.874 194.388 366.548 194.601 367.143 194.953C367.738 195.304 368.239 195.782 368.604 196.351C368.664 196.444 368.683 196.556 368.658 196.664C368.633 196.771 368.565 196.864 368.469 196.925C368.394 196.966 368.309 196.988 368.223 196.989Z" fill="#263238"/>
<path d="M365.48 200.032C364.877 201.947 364.011 203.779 362.904 205.48C363.364 205.726 363.876 205.873 364.402 205.91C364.929 205.947 365.458 205.872 365.951 205.693L365.48 200.032Z" fill="#630F0F"/>
<path d="M390.533 196.063C390.096 204.746 390.298 209.895 385.762 214.492C384.304 216.018 382.434 217.137 380.355 217.728C378.276 218.318 376.066 218.358 373.965 217.842C371.864 217.326 369.952 216.274 368.434 214.8C366.917 213.327 365.852 211.487 365.356 209.48C363.295 201.788 364.37 188.881 373.196 185.008C375.095 184.115 377.209 183.713 379.324 183.845C381.438 183.977 383.479 184.638 385.239 185.76C386.998 186.882 388.415 188.426 389.345 190.235C390.274 192.044 390.684 194.055 390.533 196.063Z" fill="#7F3E3B"/>
<path d="M394.677 198.968C393.358 202.651 391.347 206.076 388.741 209.076L376.846 211.204C376.846 211.204 367.45 207.469 369.958 201.319C368.368 200.043 368.962 196.095 370.082 193.925C370.983 194.628 372.122 194.999 373.288 194.97C374.455 194.941 375.571 194.513 376.432 193.765C376.792 194.3 377.278 194.75 377.85 195.078C378.423 195.406 379.068 195.604 379.735 195.656C380.401 195.709 381.072 195.614 381.693 195.38C382.315 195.147 382.872 194.779 383.32 194.308C383.83 194.776 384.447 195.126 385.123 195.33C385.799 195.535 386.515 195.587 387.216 195.484C387.917 195.381 388.583 195.125 389.163 194.736C389.742 194.348 390.219 193.837 390.555 193.244C391.286 193.678 392.142 193.883 393.003 193.829C393.863 193.776 394.684 193.467 395.349 192.946L395.517 192.797C395.678 194.887 395.392 196.986 394.677 198.968Z" fill="#263238"/>
<path opacity="0.1" d="M394.677 198.968C393.358 202.651 391.347 206.076 388.741 209.076L376.846 211.204C376.846 211.204 367.45 207.469 369.958 201.319C368.368 200.043 368.962 196.095 370.082 193.925C370.983 194.628 372.122 194.999 373.288 194.97C374.455 194.941 375.571 194.513 376.432 193.765C376.792 194.3 377.278 194.75 377.85 195.078C378.423 195.406 379.068 195.604 379.735 195.656C380.401 195.709 381.072 195.614 381.693 195.38C382.315 195.147 382.872 194.779 383.32 194.308C383.83 194.776 384.447 195.126 385.123 195.33C385.799 195.535 386.515 195.587 387.216 195.484C387.917 195.381 388.583 195.125 389.163 194.736C389.742 194.348 390.219 193.837 390.555 193.244C391.286 193.678 392.142 193.883 393.003 193.829C393.863 193.776 394.684 193.467 395.349 192.946L395.517 192.797C395.678 194.887 395.392 196.986 394.677 198.968Z" fill="white"/>
<path d="M396.392 188.434C396.715 189.154 396.804 189.948 396.648 190.716C396.493 191.484 396.099 192.19 395.519 192.744L395.351 192.893C394.685 193.414 393.865 193.723 393.004 193.776C392.144 193.829 391.288 193.625 390.557 193.191C390.22 193.784 389.744 194.294 389.164 194.683C388.585 195.072 387.919 195.328 387.218 195.431C386.517 195.534 385.8 195.481 385.124 195.277C384.448 195.073 383.831 194.723 383.322 194.254C382.874 194.726 382.317 195.093 381.695 195.327C381.073 195.561 380.403 195.656 379.736 195.603C379.07 195.55 378.425 195.353 377.852 195.024C377.279 194.696 376.794 194.247 376.434 193.712C375.573 194.46 374.456 194.888 373.29 194.917C372.123 194.946 370.985 194.575 370.083 193.871C369.607 193.521 369.223 193.069 368.963 192.552C368.902 192.439 368.849 192.322 368.807 192.201C368.71 192.305 368.606 192.401 368.493 192.488C367.934 192.912 367.251 193.162 366.537 193.202C365.823 193.242 365.113 193.07 364.506 192.712C364.025 192.395 363.64 191.964 363.389 191.462C363.137 190.96 363.028 190.404 363.072 189.85C363.085 189.619 363.126 189.39 363.195 189.169C363.107 189.329 362.993 189.476 362.859 189.605C362.592 189.85 362.277 190.041 361.931 190.169C361.585 190.297 361.216 190.358 360.845 190.349C360.474 190.341 360.108 190.262 359.77 190.117C359.431 189.973 359.126 189.766 358.872 189.509C358.614 189.138 358.438 188.721 358.354 188.283C358.271 187.845 358.282 187.395 358.386 186.962C358.491 186.528 358.687 186.119 358.963 185.759C359.239 185.4 359.589 185.097 359.992 184.87C360.631 184.516 361.358 184.333 362.098 184.338C363.262 184.354 364.39 184.727 365.312 185.402C364.956 184.731 364.861 183.963 365.043 183.232C365.225 182.501 365.672 181.854 366.306 181.406C366.94 180.957 367.72 180.735 368.51 180.779C369.299 180.823 370.046 181.13 370.621 181.646C370.496 181.103 370.546 180.537 370.763 180.021C370.981 179.505 371.357 179.063 371.842 178.752C373.387 177.901 375.963 178.635 377.218 180.061C377.218 180.061 378.943 176.103 381.922 176.55C382.571 176.635 385.629 177.922 385.551 178.965C385.567 179.031 385.567 179.101 385.551 179.167C385.592 179.085 385.641 179.007 385.696 178.933C386.026 178.511 386.46 178.172 386.96 177.948C387.46 177.723 388.011 177.619 388.563 177.645C389.76 177.729 390.93 178.025 392.013 178.518C394.331 179.422 396.795 180.433 398.139 182.444C399.483 184.455 398.8 187.796 396.392 188.434Z" fill="#263238"/>
<path d="M375.202 202.16C374.872 204.303 373.837 206.291 372.245 207.842C370.218 209.682 368.493 207.842 368.471 205.043C368.471 202.511 369.468 198.5 371.831 197.755C374.194 197.01 375.65 199.362 375.202 202.16Z" fill="#7F3E3B"/>
<path d="M411.04 230.399C410.2 228.271 406.28 226.143 403.872 226.143H402.282C399.074 226.169 395.869 226.365 392.684 226.728C386.282 227.401 379.925 228.417 373.644 229.771C370.754 230.494 367.965 231.409 365.748 232.197C362.925 233.261 361.268 233.974 361.268 233.974C361.268 233.974 364.359 253.53 365.96 272.959C366.845 283.779 366.476 294.515 366.767 301.899H414.546C416.192 293.026 415.935 285.29 416.069 269.267C416.136 259.616 414.49 239.155 411.04 230.399Z" fill="#263238"/>
<path opacity="0.2" d="M364.92 262.106C365.278 266.181 365.648 270.458 366.04 274.735C371.64 266.968 374.731 245.72 374.731 245.72L364.92 262.106Z" fill="black"/>
<path d="M358.558 235.399C351.715 239.06 345.006 257.743 345.006 257.743L360.686 268.969C366.667 263.595 375.414 250.263 376.366 244.933C377.889 236.804 369.523 229.569 358.558 235.399Z" fill="#263238"/>
<path d="M345.027 426.068C345.027 426.984 344.741 427.878 344.206 428.64C343.671 429.401 342.91 429.994 342.02 430.344C341.129 430.695 340.15 430.786 339.205 430.608C338.26 430.429 337.392 429.988 336.71 429.341C336.029 428.694 335.565 427.869 335.377 426.971C335.189 426.073 335.285 425.143 335.654 424.297C336.023 423.451 336.647 422.728 337.448 422.22C338.25 421.711 339.192 421.44 340.155 421.44C341.447 421.44 342.687 421.927 343.6 422.795C344.514 423.663 345.027 424.841 345.027 426.068Z" fill="#263238"/>
<path d="M417.762 426.068C417.762 426.984 418.047 427.878 418.583 428.64C419.118 429.401 419.879 429.994 420.769 430.344C421.66 430.695 422.639 430.786 423.584 430.608C424.529 430.429 425.397 429.988 426.079 429.341C426.76 428.694 427.224 427.869 427.412 426.971C427.6 426.073 427.504 425.143 427.135 424.297C426.766 423.451 426.142 422.728 425.34 422.22C424.539 421.711 423.597 421.44 422.634 421.44C421.342 421.44 420.102 421.927 419.189 422.795C418.275 423.663 417.762 424.841 417.762 426.068Z" fill="#263238"/>
<path d="M376.623 424.536C376.623 425.451 376.909 426.346 377.444 427.107C377.979 427.869 378.74 428.462 379.631 428.812C380.521 429.162 381.5 429.254 382.446 429.075C383.391 428.897 384.259 428.456 384.94 427.809C385.621 427.161 386.085 426.337 386.273 425.439C386.461 424.541 386.365 423.611 385.996 422.765C385.627 421.919 385.003 421.196 384.202 420.688C383.401 420.179 382.459 419.908 381.495 419.908C380.203 419.908 378.964 420.395 378.05 421.263C377.136 422.131 376.623 423.308 376.623 424.536Z" fill="#263238"/>
<path d="M379.984 418.876V409.927H366.029C363.289 409.924 360.556 410.166 357.864 410.651L331.88 415.439C331.297 415.547 330.778 415.859 330.427 416.314C330.075 416.769 329.917 417.333 329.984 417.893C330.05 418.454 330.336 418.97 330.785 419.34C331.234 419.709 331.813 419.904 332.406 419.886L379.984 418.876Z" fill="#263238"/>
<path d="M379.982 418.875V409.927H393.949C396.679 409.942 399.401 410.202 402.08 410.704L431.29 415.13C431.873 415.238 432.391 415.551 432.743 416.005C433.094 416.46 433.252 417.024 433.186 417.585C433.12 418.145 432.834 418.662 432.385 419.031C431.936 419.4 431.357 419.595 430.763 419.578L379.982 418.875Z" fill="#263238"/>
<path d="M388.62 368.963H371.338V409.938H388.62V368.963Z" fill="#263238"/>
<path d="M386.144 349.896H373.824V368.953H386.144V349.896Z" fill="#263238"/>
<path opacity="0.5" d="M373.824 355.493L386.144 358.44V349.896H373.824V355.493Z" fill="black"/>
<path d="M340.155 306.783H333.895V332.159H340.155V306.783Z" fill="#263238"/>
<path d="M371.549 349.896V239.57C371.547 237.506 372.011 235.466 372.91 233.586C373.808 231.707 375.12 230.032 376.757 228.675L385.034 221.791C387.821 219.468 391.406 218.193 395.114 218.205H425.006L439.589 233.016V349.896H371.549Z" fill="#F8991F"/>
<path d="M327.041 328.553H395.249V349.896H315.919C314.497 349.894 313.1 349.535 311.871 348.855C310.642 348.176 309.623 347.2 308.918 346.026C308.213 344.852 307.848 343.522 307.858 342.171C307.868 340.82 308.253 339.495 308.975 338.331C310.83 335.348 313.472 332.876 316.641 331.162C319.809 329.447 323.394 328.547 327.041 328.553Z" fill="#F8991F"/>
<path opacity="0.7" d="M439.59 233.016V349.896H315.919C314.497 349.894 313.1 349.535 311.871 348.855C310.642 348.176 309.623 347.2 308.918 346.026C308.213 344.852 307.848 343.522 307.858 342.171C307.868 340.82 308.253 339.495 308.975 338.331C310.831 335.349 313.473 332.878 316.641 331.163C319.81 329.448 323.394 328.548 327.041 328.553H361.391C364.097 328.553 366.693 327.531 368.606 325.714C370.519 323.896 371.594 321.43 371.594 318.86V239.57C371.593 237.506 372.057 235.466 372.955 233.586C373.854 231.707 375.166 230.032 376.802 228.675L385.079 221.791C387.867 219.468 391.451 218.193 395.159 218.205H425.052L439.59 233.016Z" fill="white"/>
<path d="M381.496 349.896V239.57C381.498 237.507 381.963 235.467 382.861 233.588C383.759 231.709 385.069 230.034 386.704 228.675L394.981 221.791C397.769 219.468 401.353 218.193 405.061 218.205H428.368C430.45 218.204 432.51 218.608 434.421 219.393C436.333 220.178 438.054 221.327 439.479 222.77L445.437 228.781C448.092 231.471 449.57 235.021 449.57 238.708V338.841C449.571 340.295 449.271 341.734 448.686 343.076C448.101 344.419 447.243 345.638 446.161 346.665C445.079 347.692 443.794 348.506 442.38 349.061C440.966 349.615 439.451 349.899 437.922 349.896H381.496Z" fill="#F8991F"/>
<path opacity="0.5" d="M381.496 349.896V239.57C381.498 237.507 381.963 235.467 382.861 233.588C383.759 231.709 385.069 230.034 386.704 228.675L394.981 221.791C397.769 219.468 401.353 218.193 405.061 218.205H428.368C430.45 218.204 432.51 218.608 434.421 219.393C436.333 220.178 438.054 221.327 439.479 222.77L445.437 228.781C448.092 231.471 449.57 235.021 449.57 238.708V338.841C449.571 340.295 449.271 341.734 448.686 343.076C448.101 344.419 447.243 345.638 446.161 346.665C445.079 347.692 443.794 348.506 442.38 349.061C440.966 349.615 439.451 349.899 437.922 349.896H381.496Z" fill="white"/>
<path d="M358.289 314.529C344.511 309.954 329.507 309.954 315.729 314.529C314.346 315.019 312.823 315.014 311.444 314.515C310.065 314.016 308.924 313.056 308.236 311.816C306.959 309.252 308.673 305.932 312.145 304.772C328.236 299.431 345.759 299.431 361.851 304.772C365.323 305.921 367.036 309.252 365.759 311.816C365.072 313.051 363.935 314.007 362.561 314.506C361.187 315.005 359.669 315.013 358.289 314.529Z" fill="#F8991F"/>
<path opacity="0.7" d="M358.289 314.529C344.511 309.954 329.507 309.954 315.729 314.529C314.346 315.019 312.823 315.014 311.444 314.515C310.065 314.016 308.924 313.056 308.236 311.816C306.959 309.252 308.673 305.932 312.145 304.772C328.236 299.431 345.759 299.431 361.851 304.772C365.323 305.921 367.036 309.252 365.759 311.816C365.072 313.051 363.935 314.007 362.561 314.506C361.187 315.005 359.669 315.013 358.289 314.529Z" fill="white"/>
<path d="M184.23 208.959C183.994 209.587 184.162 210.214 184.599 210.353C185.036 210.491 185.574 210.108 185.798 209.48C186.022 208.853 185.865 208.214 185.439 208.076C185.014 207.938 184.465 208.321 184.23 208.959Z" fill="#263238"/>
<path d="M184.105 209.608C184.196 211.799 184.599 213.968 185.303 216.056C184.739 216.207 184.147 216.242 183.567 216.158C182.988 216.073 182.434 215.872 181.943 215.566L184.105 209.608Z" fill="#A02724"/>
<path d="M183.153 204.682C183.194 204.698 183.238 204.706 183.282 204.706C183.326 204.706 183.37 204.698 183.411 204.682C183.903 204.533 184.425 204.494 184.936 204.567C185.447 204.641 185.933 204.826 186.357 205.107C186.401 205.138 186.451 205.161 186.504 205.173C186.557 205.186 186.612 205.188 186.666 205.18C186.721 205.172 186.773 205.154 186.819 205.127C186.866 205.1 186.907 205.064 186.939 205.022C187.001 204.95 187.035 204.86 187.035 204.767C187.035 204.674 187.001 204.584 186.939 204.511C186.413 204.14 185.801 203.893 185.154 203.791C184.508 203.69 183.845 203.736 183.221 203.926C183.118 203.962 183.035 204.034 182.987 204.127C182.939 204.221 182.93 204.328 182.963 204.426C182.982 204.484 183.015 204.536 183.06 204.579C183.105 204.621 183.16 204.653 183.221 204.671L183.153 204.682Z" fill="#263238"/>
<path d="M159.667 211.279C160.921 217.333 162.165 228.43 157.707 232.473C157.707 232.473 159.454 238.613 171.304 238.613C184.329 238.613 177.531 232.473 177.531 232.473C170.419 230.856 171.561 225.845 172.805 221.142L159.667 211.279Z" fill="#B55B52"/>
<path d="M162.568 200.298C160.239 208.214 158.447 212.736 161.112 218.067C165.111 226.1 179.088 227.143 182.896 217.95C185.797 209.438 188.664 200.532 181.776 194.818C180.27 193.551 178.448 192.671 176.484 192.26C174.519 191.849 172.477 191.921 170.55 192.47C168.623 193.018 166.875 194.026 165.472 195.395C164.07 196.765 163.059 198.453 162.535 200.298H162.568Z" fill="#B55B52"/>
<path d="M153.54 202.937C152.936 200.021 152.779 196.829 154.313 194.233C155.848 191.637 159.555 190.052 162.254 191.563C163.131 189.808 164.428 188.272 166.042 187.078C167.656 185.885 169.541 185.067 171.547 184.69C173.554 184.313 175.625 184.387 177.595 184.906C179.566 185.426 181.381 186.376 182.896 187.682C184.411 188.987 185.583 190.611 186.318 192.424C187.054 194.237 187.333 196.188 187.133 198.121C186.932 200.055 186.258 201.917 185.165 203.559C184.071 205.2 182.588 206.576 180.835 207.576C181.451 205.395 182.078 203.224 182.694 201.043C182.144 204.08 180.448 206.822 177.923 208.757L179.043 202.235C178.867 203.774 178.316 205.254 177.433 206.556C176.55 207.858 175.361 208.946 173.958 209.736L175.268 205.171C174.604 207.27 173.758 209.313 172.737 211.279C171.617 212.502 170.9 220.503 167.048 220.759C153.809 223.259 154.952 209.746 153.54 202.937Z" fill="#263238"/>
<path d="M171.36 206.725C171.137 208.754 171.616 210.798 172.727 212.545C174.216 214.822 176.4 213.949 177.207 211.619C177.923 209.491 178.002 205.82 175.93 204.341C173.858 202.862 171.674 204.288 171.36 206.725Z" fill="#B55B52"/>
<path d="M139.787 283.418C138.365 282.971 131.701 279.715 130.637 280.3C133.717 272.852 135.632 271.692 137.032 266.947C137.422 265.769 137.489 264.516 137.229 263.306C136.968 262.096 136.388 260.969 135.542 260.031C133.571 257.52 132.888 256.254 129.617 256.562C125.137 263.712 119.437 272.522 117.219 280.598C116.469 283.311 115.931 285.375 117.633 287.674C119.134 289.695 121.901 290.504 124.499 290.727C130.737 291.259 140 290.174 139.877 286.652C139.809 284.429 139.787 283.418 139.787 283.418Z" fill="#B55B52"/>
<path d="M138.735 283.152L144.021 281.524L143.551 290.6C143.551 290.6 139.317 290.738 137.055 288.046L138.735 283.152Z" fill="#B55B52"/>
<path d="M150.629 281.375L149.879 288.865L143.551 290.6L144.021 281.524L150.629 281.375Z" fill="#B55B52"/>
<path d="M211.242 289.599C211.242 289.599 203.839 284.088 194.185 266C192.751 263.468 191.385 260.903 190.063 258.329C188.741 255.754 187.487 253.179 186.277 250.444L197.724 245.763C200.076 250.636 203.749 255.669 206.348 260.51C208.946 265.351 215.073 276.821 215.845 277.885C216.226 278.438 216.641 278.896 217.033 279.406L217.626 280.151L210.245 288.259L211.242 289.599Z" fill="#B55B52"/>
<path d="M220.931 254.296L218.691 251.7L217.639 247.816L224.549 241.719C225.606 242.996 226.546 244.356 227.36 245.784C227.538 246.112 227.623 246.479 227.607 246.848L227.327 253.689L220.931 254.296Z" fill="#B55B52"/>
<path d="M217.683 243.624L222.846 239.166L224.481 241.773L217.582 247.837L217.683 243.624Z" fill="#B55B52"/>
<path d="M221.032 252.423C221.212 251.689 221.368 253.126 221.884 252.551C223.407 250.806 225.624 250.625 226.946 252.551C228.268 254.477 227.136 273.427 225.031 279.375C223.631 283.322 222.88 286.471 219.296 288.876C217.848 289.938 216.085 290.541 214.256 290.6C213.346 290.61 212.451 290.373 211.677 289.917C210.903 289.461 210.283 288.805 209.888 288.025C208.768 285.546 212.778 276.608 214.189 273.725C218.613 264.649 218.916 260.999 221.032 252.423Z" fill="#B55B52"/>
<path d="M206.214 251.604L215.365 251.519C216.671 251.599 217.979 251.402 219.195 250.944C220.686 250.118 221.799 248.794 222.32 247.231C223.619 244.039 223.731 240.613 224.235 237.272C224.739 233.931 225.814 230.42 228.48 228.175C223.619 228.792 215.04 227.345 211.288 231.122C209.317 233.133 205.834 251.604 206.214 251.604Z" fill="#F8991F"/>
<path opacity="0.5" d="M206.214 251.604L215.365 251.519C216.671 251.599 217.979 251.402 219.195 250.944C220.686 250.118 221.799 248.794 222.32 247.231C223.619 244.039 223.731 240.613 224.235 237.272C224.739 233.931 225.814 230.42 228.48 228.175C223.619 228.792 215.04 227.345 211.288 231.122C209.317 233.133 205.834 251.604 206.214 251.604Z" fill="white"/>
<path d="M221.872 238.687C221.346 238.825 220.999 240.602 221.111 241.113L221.626 241.986L222.668 246.242L226.162 244.412L223.015 239.092C222.894 238.917 222.719 238.784 222.513 238.712C222.308 238.639 222.083 238.63 221.872 238.687Z" fill="#B55B52"/>
<path d="M142.946 233.995C134.77 235.772 122.674 259.978 122.674 259.978L139.082 270.618C143.807 264.212 148.073 257.512 151.85 250.561C156.699 240.922 151.301 232.175 142.946 233.995Z" fill="#F8991F"/>
<path d="M154.885 234.58C153.944 232.633 152.925 230.409 155.042 229.718C157.383 228.952 170.195 228.164 174.608 229.601C175.186 229.75 175.728 230.006 176.201 230.354C176.675 230.702 177.071 231.136 177.368 231.63C177.664 232.125 177.855 232.67 177.929 233.235C178.004 233.799 177.96 234.372 177.8 234.921V234.995L154.885 234.58Z" fill="#263238"/>
<path opacity="0.2" d="M147.997 247.976L136.338 268.83L139.082 270.618C139.082 270.618 144.368 263.627 148.042 257.584L147.997 247.976Z" fill="black"/>
<path d="M192.639 244.646C194.409 253.158 190.276 273.374 190.321 306.358H143.706C143.404 299.697 148.511 283.907 142.161 252.455C141.959 251.391 141.869 234.208 142.945 234.027C147.459 233.277 152.013 232.766 156.586 232.495C163.189 232.133 169.808 232.133 176.41 232.495C179.109 232.761 183.354 234.346 186.042 235.261C190.22 236.666 191.788 240.464 192.639 244.646Z" fill="#F8991F"/>
<path opacity="0.2" d="M180.32 253.104C181.53 260.095 186.357 269.33 191.162 274.757C191.352 270.788 191.778 266.638 191.767 263.457L180.32 253.104Z" fill="black"/>
<path d="M176.96 242.592C175.84 250.434 192.08 270.448 192.08 270.448L208.42 259.808C208.42 259.808 203.884 248.774 196.257 241.539C187.6 233.261 178.27 234.08 176.96 242.592Z" fill="#F8991F"/>
<path d="M230.406 416.162H239.12L241.102 396.978H232.389L230.406 416.162Z" fill="#B55B52"/>
<path opacity="0.2" d="M240.967 398.138L239.959 408.023H231.234L232.254 398.138H240.967Z" fill="black"/>
<path d="M196.033 416.162H204.747L209.126 396.978H200.412L196.033 416.162Z" fill="#B55B52"/>
<g opacity="0.2">
<path d="M200.221 398H208.935L206.673 407.884H197.959L200.221 398Z" fill="black"/>
</g>
<path d="M239.614 412.438H230.105C229.908 412.46 229.725 412.546 229.588 412.682C229.451 412.818 229.369 412.995 229.354 413.183L227.63 422.653C227.53 423.02 227.57 423.409 227.742 423.751C227.914 424.094 228.207 424.368 228.57 424.525C228.674 424.541 228.78 424.541 228.884 424.525C232.311 424.462 237.273 424.206 241.585 424.206C246.636 424.206 250.993 424.536 256.906 424.536C260.49 424.536 261.487 420.089 259.986 419.695C253.166 417.865 247.599 417.673 241.708 413.194C241.121 412.722 240.382 412.455 239.614 412.438Z" fill="#263238"/>
<path d="M246.535 415.513C247.655 415.513 248.775 415.364 249.1 414.886C249.192 414.759 249.242 414.609 249.242 414.455C249.242 414.301 249.192 414.15 249.1 414.024C248.951 413.8 248.719 413.636 248.45 413.566C246.994 413.194 243.97 414.843 243.824 414.917C243.786 414.935 243.755 414.965 243.737 415.002C243.719 415.039 243.714 415.08 243.724 415.12C243.729 415.158 243.748 415.194 243.776 415.223C243.804 415.251 243.84 415.271 243.88 415.279C244.755 415.437 245.644 415.515 246.535 415.513ZM247.924 413.907H248.316C248.4 413.923 248.479 413.956 248.548 414.004C248.618 414.051 248.676 414.113 248.719 414.183C248.864 414.428 248.82 414.545 248.719 414.609C248.316 415.152 246.109 415.162 244.485 414.939C245.553 414.392 246.719 414.038 247.924 413.896V413.907Z" fill="#F8991F"/>
<path d="M243.902 415.279H243.992C245.044 414.832 247.128 413.045 246.96 412.087C246.96 411.864 246.758 411.598 246.198 411.534C245.792 411.505 245.391 411.627 245.078 411.874C243.958 412.736 243.734 414.971 243.723 415.066C243.718 415.1 243.722 415.135 243.736 415.167C243.75 415.199 243.772 415.227 243.801 415.247C243.831 415.267 243.866 415.278 243.902 415.279ZM246.03 411.928H246.153C246.523 411.928 246.545 412.108 246.556 412.151C246.657 412.715 245.235 414.119 244.16 414.726C244.251 413.79 244.642 412.902 245.28 412.183C245.493 412.021 245.757 411.931 246.03 411.928Z" fill="#F8991F"/>
<path d="M205.364 412.438H195.575C195.379 412.46 195.198 412.547 195.063 412.683C194.928 412.819 194.848 412.996 194.836 413.183L193.111 422.653C193.017 423.028 193.066 423.422 193.248 423.767C193.431 424.111 193.735 424.384 194.108 424.536C194.201 424.546 194.295 424.546 194.388 424.536C197.804 424.472 199.473 424.217 203.773 424.217C206.428 424.217 209.821 424.547 213.484 424.547C217.146 424.547 217.617 420.099 216.116 419.705C209.396 417.897 208.937 415.449 206.786 413.024C206.608 412.834 206.388 412.683 206.143 412.582C205.897 412.481 205.631 412.432 205.364 412.438Z" fill="#263238"/>
<path d="M210.481 416.567C210.85 416.615 211.226 416.592 211.586 416.499C211.946 416.405 212.283 416.244 212.575 416.024C212.678 415.889 212.733 415.727 212.733 415.561C212.733 415.395 212.678 415.233 212.575 415.098C212.509 414.981 212.416 414.88 212.304 414.801C212.192 414.722 212.063 414.667 211.926 414.641C210.649 414.354 208.241 415.918 208.14 415.981C208.108 416.005 208.083 416.036 208.067 416.071C208.052 416.107 208.046 416.145 208.05 416.184C208.057 416.221 208.075 416.255 208.104 416.282C208.132 416.309 208.168 416.326 208.207 416.333C208.954 416.49 209.716 416.568 210.481 416.567ZM211.601 414.992H211.847C211.926 415.006 212.001 415.036 212.067 415.08C212.133 415.124 212.188 415.181 212.228 415.247C212.418 415.577 212.306 415.705 212.228 415.758C211.858 416.215 210.078 416.226 208.767 416.024C209.609 415.475 210.57 415.111 211.578 414.96L211.601 414.992Z" fill="#F8991F"/>
<path d="M208.32 416.343C209.227 415.875 210.975 414.066 210.784 413.151C210.755 413.005 210.674 412.872 210.553 412.777C210.432 412.682 210.28 412.63 210.123 412.63C209.967 412.616 209.81 412.631 209.66 412.675C209.51 412.718 209.37 412.79 209.25 412.885C208.242 413.673 208.029 416.077 208.018 416.162C208.016 416.198 208.025 416.234 208.042 416.266C208.06 416.298 208.086 416.324 208.119 416.343H208.32ZM210.079 412.992H210.168C210.437 412.992 210.459 413.141 210.471 413.194C210.583 413.736 209.463 415.109 208.567 415.758C208.636 414.816 208.994 413.913 209.597 413.162C209.731 413.053 209.902 412.993 210.079 412.992Z" fill="#F8991F"/>
<path d="M176.354 306.336C176.354 306.336 217.626 322.53 226.161 334.969C221.087 366.612 211.982 402.66 211.982 402.66H196.458C196.483 387.063 197.828 371.492 200.479 356.1C202.719 317.423 129.449 357.44 143.684 306.336H176.354Z" fill="#263238"/>
<path opacity="0.3" d="M204.893 333.032C202.002 333.194 199.123 333.51 196.269 333.979L187.23 335.298C191.893 339.02 196.813 342.439 201.958 345.534C205.083 347.417 208.488 349.226 212.173 349.237C216.317 349.237 227.562 344.193 225.702 338.948C223.843 333.702 209.597 332.84 204.893 333.032Z" fill="black"/>
<path d="M190.332 306.336C190.332 306.336 228.479 311.018 249.513 322.392C255.986 325.893 255.113 337.139 254.911 344.545C254.46 364.417 250.445 384.07 243.039 402.66H230.07C230.07 402.66 230.73 382.583 230.294 350.184C230.159 340.469 209.518 337.267 189.346 336.139C180.805 335.629 172.583 332.861 165.609 328.148C158.635 323.434 153.186 316.963 149.878 309.464L148.5 306.336H190.332Z" fill="#263238"/>
<path d="M246.186 399.362C246.254 399.362 245.346 405.182 245.346 405.182H227.426L226.934 399.99L246.186 399.362Z" fill="#F8991F"/>
<path d="M213.482 399.362C213.55 399.362 211.836 405.182 211.836 405.182H193.916L194.241 399.99L213.482 399.362Z" fill="#F8991F"/>
<path d="M165.335 335.703L152.488 425.621L150.17 425.313L160.082 335.022L165.335 335.703Z" fill="#F8991F"/>
<path opacity="0.4" d="M164.876 338.927L152.488 425.621L150.17 425.313L159.656 338.905L164.876 338.927Z" fill="black"/>
<path d="M210.493 338.916H137.693C137.693 337.879 137.908 336.853 138.326 335.895C138.744 334.937 139.356 334.066 140.127 333.333C140.899 332.6 141.815 332.019 142.824 331.622C143.832 331.225 144.912 331.021 146.004 331.021H202.183C203.274 331.021 204.355 331.225 205.363 331.622C206.371 332.019 207.288 332.6 208.059 333.333C208.831 334.066 209.443 334.937 209.861 335.895C210.278 336.853 210.493 337.879 210.493 338.916Z" fill="#F8991F"/>
<path opacity="0.7" d="M210.493 338.916H137.693C137.693 337.879 137.908 336.853 138.326 335.895C138.744 334.937 139.356 334.066 140.127 333.333C140.899 332.6 141.815 332.019 142.824 331.622C143.832 331.225 144.912 331.021 146.004 331.021H202.183C203.274 331.021 204.355 331.225 205.363 331.622C206.371 332.019 207.288 332.6 208.059 333.333C208.831 334.066 209.443 334.937 209.861 335.895C210.278 336.853 210.493 337.879 210.493 338.916Z" fill="white"/>
<path d="M141.064 338.905L130.088 426.334H132.44L146.361 338.905H141.064Z" fill="#F8991F"/>
<path d="M207.122 338.905L218.098 426.334H215.746L201.836 338.905H207.122Z" fill="#F8991F"/>
<path opacity="0.4" d="M207.122 338.905L218.098 426.334H215.746L201.836 338.905H207.122Z" fill="black"/>
<path d="M192.438 338.905L192.651 426.334H190.31L187.141 338.905H192.438Z" fill="#F8991F"/>
<path d="M227.784 479V472.455H228.789V479H227.784ZM228.295 471.364C228.099 471.364 227.93 471.297 227.788 471.163C227.649 471.03 227.579 470.869 227.579 470.682C227.579 470.494 227.649 470.334 227.788 470.2C227.93 470.067 228.099 470 228.295 470C228.491 470 228.659 470.067 228.798 470.2C228.94 470.334 229.011 470.494 229.011 470.682C229.011 470.869 228.94 471.03 228.798 471.163C228.659 471.297 228.491 471.364 228.295 471.364ZM230.631 479V472.455H231.603V473.477H231.688C231.825 473.128 232.045 472.857 232.349 472.663C232.653 472.467 233.018 472.369 233.444 472.369C233.876 472.369 234.235 472.467 234.522 472.663C234.812 472.857 235.038 473.128 235.2 473.477H235.268C235.435 473.139 235.687 472.871 236.022 472.672C236.357 472.47 236.759 472.369 237.228 472.369C237.813 472.369 238.292 472.553 238.664 472.919C239.036 473.283 239.222 473.849 239.222 474.619V479H238.217V474.619C238.217 474.136 238.085 473.791 237.82 473.584C237.556 473.376 237.245 473.273 236.887 473.273C236.427 473.273 236.07 473.412 235.817 473.69C235.565 473.966 235.438 474.315 235.438 474.739V479H234.415V474.517C234.415 474.145 234.295 473.845 234.053 473.618C233.812 473.388 233.501 473.273 233.12 473.273C232.859 473.273 232.614 473.342 232.387 473.482C232.163 473.621 231.981 473.814 231.842 474.061C231.705 474.305 231.637 474.588 231.637 474.909V479H230.631ZM243.703 481.591C243.217 481.591 242.8 481.528 242.45 481.403C242.101 481.281 241.81 481.119 241.577 480.918C241.347 480.719 241.163 480.506 241.027 480.278L241.828 479.716C241.919 479.835 242.034 479.972 242.173 480.125C242.313 480.281 242.503 480.416 242.744 480.53C242.989 480.646 243.308 480.705 243.703 480.705C244.232 480.705 244.668 480.577 245.011 480.321C245.355 480.065 245.527 479.665 245.527 479.119V477.79H245.442C245.368 477.909 245.263 478.057 245.126 478.233C244.993 478.406 244.8 478.561 244.547 478.697C244.297 478.831 243.959 478.898 243.533 478.898C243.004 478.898 242.53 478.773 242.109 478.523C241.692 478.273 241.361 477.909 241.116 477.432C240.875 476.955 240.754 476.375 240.754 475.693C240.754 475.023 240.872 474.439 241.108 473.942C241.344 473.442 241.672 473.055 242.092 472.783C242.513 472.507 242.999 472.369 243.55 472.369C243.976 472.369 244.314 472.44 244.564 472.582C244.817 472.722 245.01 472.881 245.143 473.06C245.28 473.236 245.385 473.381 245.459 473.494H245.561V472.455H246.533V479.188C246.533 479.75 246.405 480.207 246.149 480.56C245.896 480.915 245.555 481.175 245.126 481.339C244.7 481.507 244.226 481.591 243.703 481.591ZM243.669 477.994C244.072 477.994 244.413 477.902 244.692 477.717C244.97 477.533 245.182 477.267 245.327 476.92C245.472 476.574 245.544 476.159 245.544 475.676C245.544 475.205 245.473 474.788 245.331 474.428C245.189 474.067 244.979 473.784 244.7 473.58C244.422 473.375 244.078 473.273 243.669 473.273C243.243 473.273 242.888 473.381 242.604 473.597C242.322 473.812 242.111 474.102 241.969 474.466C241.83 474.83 241.76 475.233 241.76 475.676C241.76 476.131 241.831 476.533 241.973 476.882C242.118 477.229 242.331 477.501 242.612 477.7C242.896 477.896 243.249 477.994 243.669 477.994ZM256.385 473.92L255.482 474.176C255.425 474.026 255.341 473.879 255.23 473.737C255.122 473.592 254.974 473.473 254.787 473.379C254.599 473.286 254.359 473.239 254.067 473.239C253.666 473.239 253.332 473.331 253.065 473.516C252.801 473.697 252.669 473.929 252.669 474.21C252.669 474.46 252.76 474.658 252.942 474.803C253.124 474.947 253.408 475.068 253.794 475.165L254.766 475.403C255.351 475.545 255.787 475.763 256.074 476.055C256.361 476.345 256.504 476.719 256.504 477.176C256.504 477.551 256.396 477.886 256.18 478.182C255.967 478.477 255.669 478.71 255.286 478.881C254.902 479.051 254.456 479.136 253.947 479.136C253.28 479.136 252.727 478.991 252.29 478.702C251.852 478.412 251.575 477.989 251.459 477.432L252.413 477.193C252.504 477.545 252.676 477.81 252.929 477.986C253.185 478.162 253.518 478.25 253.93 478.25C254.399 478.25 254.771 478.151 255.047 477.952C255.325 477.75 255.464 477.509 255.464 477.227C255.464 477 255.385 476.81 255.226 476.656C255.067 476.5 254.822 476.384 254.493 476.307L253.402 476.051C252.803 475.909 252.362 475.689 252.081 475.391C251.803 475.089 251.663 474.713 251.663 474.261C251.663 473.892 251.767 473.565 251.974 473.281C252.185 472.997 252.47 472.774 252.831 472.612C253.195 472.45 253.607 472.369 254.067 472.369C254.714 472.369 255.223 472.511 255.592 472.795C255.964 473.08 256.229 473.455 256.385 473.92ZM260.677 479.136C260.086 479.136 259.568 478.996 259.122 478.714C258.679 478.433 258.332 478.04 258.082 477.534C257.835 477.028 257.711 476.437 257.711 475.761C257.711 475.08 257.835 474.484 258.082 473.976C258.332 473.467 258.679 473.072 259.122 472.791C259.568 472.51 260.086 472.369 260.677 472.369C261.268 472.369 261.785 472.51 262.228 472.791C262.674 473.072 263.021 473.467 263.268 473.976C263.518 474.484 263.643 475.08 263.643 475.761C263.643 476.437 263.518 477.028 263.268 477.534C263.021 478.04 262.674 478.433 262.228 478.714C261.785 478.996 261.268 479.136 260.677 479.136ZM260.677 478.233C261.126 478.233 261.495 478.118 261.785 477.888C262.075 477.658 262.289 477.355 262.429 476.98C262.568 476.605 262.637 476.199 262.637 475.761C262.637 475.324 262.568 474.916 262.429 474.538C262.289 474.161 262.075 473.855 261.785 473.622C261.495 473.389 261.126 473.273 260.677 473.273C260.228 473.273 259.859 473.389 259.569 473.622C259.279 473.855 259.065 474.161 258.926 474.538C258.787 474.916 258.717 475.324 258.717 475.761C258.717 476.199 258.787 476.605 258.926 476.98C259.065 477.355 259.279 477.658 259.569 477.888C259.859 478.118 260.228 478.233 260.677 478.233ZM269.303 476.324V472.455H270.309V479H269.303V477.892H269.235C269.082 478.224 268.843 478.507 268.519 478.74C268.195 478.97 267.786 479.085 267.292 479.085C266.883 479.085 266.519 478.996 266.201 478.817C265.883 478.635 265.633 478.362 265.451 477.999C265.269 477.632 265.178 477.17 265.178 476.614V472.455H266.184V476.545C266.184 477.023 266.317 477.403 266.585 477.688C266.854 477.972 267.198 478.114 267.616 478.114C267.866 478.114 268.12 478.05 268.379 477.922C268.64 477.794 268.859 477.598 269.035 477.334C269.214 477.07 269.303 476.733 269.303 476.324ZM272.151 479V472.455H273.123V473.443H273.191C273.31 473.119 273.526 472.857 273.838 472.655C274.151 472.453 274.503 472.352 274.895 472.352C274.969 472.352 275.061 472.354 275.172 472.357C275.283 472.359 275.367 472.364 275.424 472.369V473.392C275.39 473.384 275.311 473.371 275.189 473.354C275.07 473.334 274.944 473.324 274.81 473.324C274.492 473.324 274.208 473.391 273.958 473.524C273.711 473.655 273.515 473.837 273.37 474.07C273.228 474.3 273.157 474.562 273.157 474.858V479H272.151ZM279.076 479.136C278.462 479.136 277.934 478.991 277.49 478.702C277.047 478.412 276.706 478.013 276.468 477.504C276.229 476.996 276.11 476.415 276.11 475.761C276.11 475.097 276.232 474.51 276.476 474.001C276.723 473.49 277.067 473.091 277.507 472.804C277.951 472.514 278.468 472.369 279.059 472.369C279.519 472.369 279.934 472.455 280.303 472.625C280.672 472.795 280.975 473.034 281.211 473.341C281.446 473.648 281.593 474.006 281.65 474.415H280.644C280.567 474.116 280.397 473.852 280.132 473.622C279.871 473.389 279.519 473.273 279.076 473.273C278.684 473.273 278.34 473.375 278.044 473.58C277.752 473.781 277.523 474.067 277.358 474.436C277.196 474.803 277.115 475.233 277.115 475.727C277.115 476.233 277.195 476.673 277.354 477.048C277.516 477.423 277.743 477.714 278.036 477.922C278.331 478.129 278.678 478.233 279.076 478.233C279.337 478.233 279.574 478.188 279.787 478.097C280 478.006 280.181 477.875 280.328 477.705C280.476 477.534 280.581 477.33 280.644 477.091H281.65C281.593 477.477 281.452 477.825 281.228 478.135C281.006 478.442 280.712 478.686 280.346 478.868C279.982 479.047 279.559 479.136 279.076 479.136ZM285.864 479.136C285.233 479.136 284.689 478.997 284.232 478.719C283.777 478.438 283.426 478.045 283.179 477.543C282.935 477.037 282.813 476.449 282.813 475.778C282.813 475.108 282.935 474.517 283.179 474.006C283.426 473.491 283.77 473.091 284.211 472.804C284.654 472.514 285.171 472.369 285.762 472.369C286.103 472.369 286.439 472.426 286.772 472.54C287.104 472.653 287.407 472.838 287.679 473.094C287.952 473.347 288.169 473.682 288.331 474.099C288.493 474.517 288.574 475.031 288.574 475.642V476.068H283.529V475.199H287.551C287.551 474.83 287.478 474.5 287.33 474.21C287.185 473.92 286.978 473.692 286.708 473.524C286.441 473.357 286.125 473.273 285.762 473.273C285.361 473.273 285.015 473.372 284.722 473.571C284.432 473.767 284.209 474.023 284.053 474.338C283.897 474.653 283.819 474.991 283.819 475.352V475.932C283.819 476.426 283.904 476.845 284.074 477.189C284.248 477.53 284.488 477.79 284.794 477.969C285.101 478.145 285.458 478.233 285.864 478.233C286.128 478.233 286.367 478.196 286.58 478.122C286.796 478.045 286.982 477.932 287.138 477.781C287.294 477.628 287.415 477.437 287.5 477.21L288.472 477.483C288.37 477.812 288.198 478.102 287.956 478.352C287.715 478.599 287.417 478.793 287.061 478.932C286.706 479.068 286.307 479.136 285.864 479.136ZM293.854 474.79V475.727H290.036V474.79H293.854ZM303.908 472.455C303.857 472.023 303.649 471.688 303.286 471.449C302.922 471.21 302.476 471.091 301.947 471.091C301.561 471.091 301.223 471.153 300.933 471.278C300.646 471.403 300.422 471.575 300.26 471.794C300.101 472.013 300.021 472.261 300.021 472.54C300.021 472.773 300.077 472.973 300.188 473.141C300.301 473.305 300.446 473.443 300.622 473.554C300.798 473.662 300.983 473.751 301.176 473.822C301.369 473.891 301.547 473.946 301.709 473.989L302.595 474.227C302.822 474.287 303.075 474.369 303.354 474.474C303.635 474.58 303.903 474.723 304.159 474.905C304.418 475.084 304.631 475.314 304.798 475.595C304.966 475.876 305.05 476.222 305.05 476.631C305.05 477.102 304.926 477.528 304.679 477.909C304.435 478.29 304.077 478.592 303.605 478.817C303.136 479.041 302.567 479.153 301.896 479.153C301.271 479.153 300.73 479.053 300.273 478.851C299.818 478.649 299.46 478.368 299.199 478.007C298.94 477.646 298.794 477.227 298.76 476.75H299.851C299.879 477.08 299.99 477.352 300.183 477.568C300.379 477.781 300.626 477.94 300.925 478.045C301.226 478.148 301.55 478.199 301.896 478.199C302.3 478.199 302.662 478.134 302.983 478.003C303.304 477.869 303.558 477.685 303.746 477.449C303.933 477.21 304.027 476.932 304.027 476.614C304.027 476.324 303.946 476.088 303.784 475.906C303.622 475.724 303.409 475.577 303.145 475.463C302.881 475.349 302.595 475.25 302.288 475.165L301.214 474.858C300.533 474.662 299.993 474.382 299.595 474.018C299.197 473.655 298.999 473.179 298.999 472.591C298.999 472.102 299.131 471.676 299.395 471.312C299.662 470.946 300.02 470.662 300.469 470.46C300.92 470.256 301.425 470.153 301.982 470.153C302.544 470.153 303.044 470.254 303.482 470.456C303.919 470.655 304.266 470.928 304.521 471.274C304.78 471.621 304.916 472.014 304.93 472.455H303.908ZM309.498 472.455V473.307H306.105V472.455H309.498ZM307.094 470.886H308.1V477.125C308.1 477.409 308.141 477.622 308.223 477.764C308.309 477.903 308.417 477.997 308.547 478.045C308.681 478.091 308.821 478.114 308.969 478.114C309.08 478.114 309.171 478.108 309.242 478.097C309.313 478.082 309.37 478.071 309.412 478.062L309.617 478.966C309.549 478.991 309.453 479.017 309.331 479.043C309.209 479.071 309.054 479.085 308.867 479.085C308.583 479.085 308.304 479.024 308.032 478.902C307.762 478.78 307.537 478.594 307.358 478.344C307.182 478.094 307.094 477.778 307.094 477.398V470.886ZM313.599 479.136C313.008 479.136 312.49 478.996 312.044 478.714C311.6 478.433 311.254 478.04 311.004 477.534C310.757 477.028 310.633 476.437 310.633 475.761C310.633 475.08 310.757 474.484 311.004 473.976C311.254 473.467 311.6 473.072 312.044 472.791C312.49 472.51 313.008 472.369 313.599 472.369C314.19 472.369 314.707 472.51 315.15 472.791C315.596 473.072 315.943 473.467 316.19 473.976C316.44 474.484 316.565 475.08 316.565 475.761C316.565 476.437 316.44 477.028 316.19 477.534C315.943 478.04 315.596 478.433 315.15 478.714C314.707 478.996 314.19 479.136 313.599 479.136ZM313.599 478.233C314.048 478.233 314.417 478.118 314.707 477.888C314.997 477.658 315.211 477.355 315.35 476.98C315.49 476.605 315.559 476.199 315.559 475.761C315.559 475.324 315.49 474.916 315.35 474.538C315.211 474.161 314.997 473.855 314.707 473.622C314.417 473.389 314.048 473.273 313.599 473.273C313.15 473.273 312.781 473.389 312.491 473.622C312.201 473.855 311.987 474.161 311.848 474.538C311.708 474.916 311.639 475.324 311.639 475.761C311.639 476.199 311.708 476.605 311.848 476.98C311.987 477.355 312.201 477.658 312.491 477.888C312.781 478.118 313.15 478.233 313.599 478.233ZM318.1 479V472.455H319.072V473.443H319.14C319.259 473.119 319.475 472.857 319.788 472.655C320.1 472.453 320.452 472.352 320.844 472.352C320.918 472.352 321.011 472.354 321.121 472.357C321.232 472.359 321.316 472.364 321.373 472.369V473.392C321.339 473.384 321.261 473.371 321.138 473.354C321.019 473.334 320.893 473.324 320.759 473.324C320.441 473.324 320.157 473.391 319.907 473.524C319.66 473.655 319.464 473.837 319.319 474.07C319.177 474.3 319.106 474.562 319.106 474.858V479H318.1ZM323.412 481.455C323.241 481.455 323.089 481.44 322.956 481.412C322.822 481.386 322.73 481.361 322.679 481.335L322.935 480.449C323.179 480.511 323.395 480.534 323.582 480.517C323.77 480.5 323.936 480.416 324.081 480.266C324.229 480.118 324.364 479.878 324.486 479.545L324.673 479.034L322.253 472.455H323.344L325.151 477.67H325.219L327.026 472.455H328.116L325.338 479.955C325.213 480.293 325.058 480.572 324.874 480.794C324.689 481.018 324.474 481.185 324.23 481.293C323.989 481.401 323.716 481.455 323.412 481.455ZM334.08 473.92L333.177 474.176C333.12 474.026 333.036 473.879 332.925 473.737C332.817 473.592 332.67 473.473 332.482 473.379C332.295 473.286 332.055 473.239 331.762 473.239C331.362 473.239 331.028 473.331 330.761 473.516C330.496 473.697 330.364 473.929 330.364 474.21C330.364 474.46 330.455 474.658 330.637 474.803C330.819 474.947 331.103 475.068 331.489 475.165L332.461 475.403C333.046 475.545 333.482 475.763 333.769 476.055C334.056 476.345 334.2 476.719 334.2 477.176C334.2 477.551 334.092 477.886 333.876 478.182C333.663 478.477 333.364 478.71 332.981 478.881C332.597 479.051 332.151 479.136 331.643 479.136C330.975 479.136 330.423 478.991 329.985 478.702C329.548 478.412 329.271 477.989 329.154 477.432L330.109 477.193C330.2 477.545 330.371 477.81 330.624 477.986C330.88 478.162 331.214 478.25 331.626 478.25C332.094 478.25 332.467 478.151 332.742 477.952C333.021 477.75 333.16 477.509 333.16 477.227C333.16 477 333.08 476.81 332.921 476.656C332.762 476.5 332.518 476.384 332.188 476.307L331.097 476.051C330.498 475.909 330.058 475.689 329.776 475.391C329.498 475.089 329.359 474.713 329.359 474.261C329.359 473.892 329.462 473.565 329.67 473.281C329.88 472.997 330.165 472.774 330.526 472.612C330.89 472.45 331.302 472.369 331.762 472.369C332.41 472.369 332.918 472.511 333.288 472.795C333.66 473.08 333.924 473.455 334.08 473.92ZM338.458 479.136C337.827 479.136 337.283 478.997 336.826 478.719C336.371 478.438 336.02 478.045 335.773 477.543C335.529 477.037 335.407 476.449 335.407 475.778C335.407 475.108 335.529 474.517 335.773 474.006C336.02 473.491 336.364 473.091 336.804 472.804C337.248 472.514 337.765 472.369 338.355 472.369C338.696 472.369 339.033 472.426 339.365 472.54C339.698 472.653 340 472.838 340.273 473.094C340.546 473.347 340.763 473.682 340.925 474.099C341.087 474.517 341.168 475.031 341.168 475.642V476.068H336.123V475.199H340.145C340.145 474.83 340.071 474.5 339.924 474.21C339.779 473.92 339.571 473.692 339.301 473.524C339.034 473.357 338.719 473.273 338.355 473.273C337.955 473.273 337.608 473.372 337.316 473.571C337.026 473.767 336.803 474.023 336.647 474.338C336.49 474.653 336.412 474.991 336.412 475.352V475.932C336.412 476.426 336.498 476.845 336.668 477.189C336.841 477.53 337.081 477.79 337.388 477.969C337.695 478.145 338.051 478.233 338.458 478.233C338.722 478.233 338.961 478.196 339.174 478.122C339.39 478.045 339.576 477.932 339.732 477.781C339.888 477.628 340.009 477.437 340.094 477.21L341.066 477.483C340.963 477.812 340.792 478.102 340.55 478.352C340.309 478.599 340.01 478.793 339.655 478.932C339.3 479.068 338.901 479.136 338.458 479.136ZM345.544 472.455V473.307H342.152V472.455H345.544ZM343.141 470.886H344.147V477.125C344.147 477.409 344.188 477.622 344.27 477.764C344.355 477.903 344.463 477.997 344.594 478.045C344.728 478.091 344.868 478.114 345.016 478.114C345.127 478.114 345.218 478.108 345.289 478.097C345.36 478.082 345.417 478.071 345.459 478.062L345.664 478.966C345.596 478.991 345.5 479.017 345.378 479.043C345.256 479.071 345.101 479.085 344.914 479.085C344.63 479.085 344.351 479.024 344.078 478.902C343.809 478.78 343.584 478.594 343.405 478.344C343.229 478.094 343.141 477.778 343.141 477.398V470.886Z" fill="black"/>
</svg>
